<mxfile host="app.diagrams.net" modified="2024-05-17T07:30:15.010Z" agent="Mozilla/5.0 (Windows NT 10.0; Win64; x64) AppleWebKit/537.36 (KHTML, like Gecko) Chrome/124.0.0.0 Safari/537.36" etag="L01W-8ysdFdfCUvrQGIr" version="24.4.0" type="device">
  <diagram id="kgpKYQtTHZ0yAKxKKP6v" name="Page-1">
    <mxGraphModel dx="2524" dy="738" grid="1" gridSize="10" guides="1" tooltips="1" connect="1" arrows="1" fold="1" page="1" pageScale="1" pageWidth="850" pageHeight="1100" math="0" shadow="0">
      <root>
        <mxCell id="0" />
        <mxCell id="1" parent="0" />
        <mxCell id="9d08CHahCs7Jw4tF3D-T-2" value="START" style="ellipse;whiteSpace=wrap;html=1;" parent="1" vertex="1">
          <mxGeometry x="-30" y="330" width="60" height="50" as="geometry" />
        </mxCell>
        <mxCell id="9d08CHahCs7Jw4tF3D-T-3" value="STOP" style="ellipse;whiteSpace=wrap;html=1;" parent="1" vertex="1">
          <mxGeometry x="1050" y="290.01" width="60" height="50" as="geometry" />
        </mxCell>
        <mxCell id="9d08CHahCs7Jw4tF3D-T-4" value="BRANCH 1:&lt;br&gt;INFLOW" style="shape=parallelogram;perimeter=parallelogramPerimeter;whiteSpace=wrap;html=1;fixedSize=1;" parent="1" vertex="1">
          <mxGeometry x="60" y="235" width="120" height="60" as="geometry" />
        </mxCell>
        <mxCell id="9d08CHahCs7Jw4tF3D-T-8" value="BRANCH 2:&lt;br&gt;OUTFLOW" style="shape=parallelogram;perimeter=parallelogramPerimeter;whiteSpace=wrap;html=1;fixedSize=1;" parent="1" vertex="1">
          <mxGeometry x="60" y="295" width="120" height="60" as="geometry" />
        </mxCell>
        <mxCell id="9d08CHahCs7Jw4tF3D-T-9" value="BRANCH 3:&lt;br&gt;GRAPH SIGNAL" style="shape=parallelogram;perimeter=parallelogramPerimeter;whiteSpace=wrap;html=1;fixedSize=1;" parent="1" vertex="1">
          <mxGeometry x="60" y="355" width="120" height="60" as="geometry" />
        </mxCell>
        <mxCell id="9d08CHahCs7Jw4tF3D-T-10" value="BRANCH 4:&lt;br&gt;WEATHER AND&amp;nbsp;&lt;br&gt;AIR QUALITY" style="shape=parallelogram;perimeter=parallelogramPerimeter;whiteSpace=wrap;html=1;fixedSize=1;" parent="1" vertex="1">
          <mxGeometry x="60" y="415" width="120" height="60" as="geometry" />
        </mxCell>
        <mxCell id="Rq42y3tWJTyJUc1vezib-18" value="INPUT:&lt;br&gt;&lt;img alt=&quot;&quot; src=&quot;data:image/png;base64,iVBORw0KGgoAAAANSUhEUgAAAKQAAAAdCAYAAAAkcMf8AAAAAXNSR0IArs4c6QAAAARnQU1BAACxjwv8YQUAAAAJcEhZcwAADsMAAA7DAcdvqGQAAAylSURBVHhe7ZwHWFRXFsf/ihVZMQuJRkVRDFYUkSLoWqPGtjYUWywxir2gWKLGtpZYMLagZl1UxBIRrKA0IUpTmgU1o4g6tIERBoEpMG/OPmYeShdpjpHf9803c8998+b/Dufdc+6976MWsaCGGtSE2tx7DepOVhzu+V/D+XMBnOHvSU1AfipoNIAi7Ci2uMdwhr8nNQH5qdCgEUTJKWhrbskZ/p585gGZDYkkm31n2HeZyqSOSN8gM+shgsIbwKSXAWf8+CjEWZAouAYHI5NBzn0uD59pQCogjL6IDcPNMOd0FK5ttEafnitwTcx1qwviv+Dm8AuOXArAVcf98M40gVXXelznx0SMJ1d+wY+DLLHichbbZhBzfA6WnE6CLDkMLruPIlBYKFLLyCcZkExSIJwPOCNYUL6Lzr1s3faGaFKrBXTSeWgy7zCcTyxHX02uWx3IioSj7c+I7mGL2TbD0LORGFnGvWDakOv/mGS/Rl1DI+jKv0br1nXZPwgffp7xaNlJF5p6vTC+Ew9OrrHcwUVh+MHwuitg81NRigakIh2PPY/AflRPWPQwQx/rVTh2i891fnxkT8/ipy1h6DDte1g25eQzSQg//yuWDFdpthqxGIcu38drNl4Vomhc2zMHQ8zM0GvoXBzwj1d+RZEUgvBXUjTsOJg9T1N0MNaHlrKnCvhgfTJEHFyLM7ozsahvE/aPlImH0fHoaGWBxqozViIMksJcsX/hCPQyNYWF+UgsPXAFD1TiEH3VAXO/NYOFxTDM3xeABIb9Sj09tEwJxJ0GPfGvTvWgEATgdqo5+nSqozyjhgaQlvJa+bk4NPRMYBB3BOv3BkCQe7785K5DFkVK3st7ULs2FrTaN4uzqQGi27R5+Hg6EC3jDAUReSylnm30qZvtRXrD2YgYEnrY0cDBq8jjVc4729lZZNxvE4VIOFM1UGZ9mTdohZklrfETK5tMnDNN7zqKDvLkynaVIPIkO9O2ZNBlLl1K52wsTIonreg3hNZc41Oe94hkFLltMPW29yWx0pc/0kDl51xy6MEua5p3XqhslYyUHuybQlP3RlAmZ8ml+JQtj8GD6HRA2wJ9zdUlj8kQ/ttmXGk+AZM6FF9HaQ+YiOGtNJAV6gX/NJVN9uQ4Vh7Kxvzf/4Oheqo7OLcGuhN4Dy2Hj0OPBpypGiirPiYlBi8ymqF1G/Y6mTgEHLuA+7pmMG/4As/Ty1umvAft/rAZ2QoamaHwvsmJkz7BSftDyF54FJuHtUSe94AcxMamoLO5KRqyn3nRz9HKyAj12R6F0BcukUaY+p2O6tASqY8uP8xES1d7OAS/K96LDUgm/haCn8mhadIbZlWWxz6QtOtw+iMOXfr3xRclVb71e8B6dEdopPnD9Uo85EnXsXGlD0y27MDYVu/cCWk4AiN00XdQ+3xOrgbKqE+jmSnMW8fgj/U/YfMuP9Rt0wwkjUFwNOFr7ZIuvqLUh8n4UeiokYaA81eRIE/CjZ9XwcdkM7aNa1XITw3QtbcpJI9uI9jrAnhaHZB9z5e9yS/j8IE7MF5nD6uyxI1WT/Q3FeHC/nN4mZe6uZEyHwwJTk2jzq0NafIxPtvKR2YsPeSJCtqqiTQ3WzI2GES7ot4ljuKQv3KiKR30qcPQhbRywihae13wUfSWRJn1SVMpUZBByiSdk0rxiRlVfx1yPh2f2JEM2g2lxStsaMzqGyQo5UfFghfET1WVT/KMRHrJavzQoiL17AzqZDCUHB6q/q7F7GW/weW5vbHcpzWWeLhjoSF7b8gScM/HFY7bjyBx7HlcsOv0npElG+HH1uLUPRnKtlHOznr7LsS6ce24dmFkCF4/ENPP6mFtgAumNy9llFC8xsX5A2F/XYKuyy/i9KKOylSiNqi1PgVeu8/HYLsbkHSzg9u5RehQxeJkwRvx3ZTT+Gq1D87NaVVMypbcQWB4Jmq3toSVPhd2dZvBaKgNLPWozAH2hb4RunUzLuOrGzq2KG2Mz0FCQgoUtRtBq/H7UpYGdHX/ySqQIzlOwM4h1Q311qehq6ssieSC+KIz4CqgDvt7TWrL8erZM5VBOU7mQxa8gfq1aUu9Vvuz86B8MMl0akpHGrknOt9sq7oQ0umphmRgOJvc8k/JiiAlnvMcGrdgGy3vb0DtjBfQlTSuSy1Qb31S3imaO3ohbV86gAz1u9OiS1UvjuEfo0nt9MnI9pKyXWi4kYN3OxSJ1BimvXuoUSrRhLY2q0YhgaTwXtVbFEjx2YK13sbYsNMec62NUFfkD7drSWyPOqDe+hTJPti62gvGm37BivnWMKorQsCFa0iqYnGkkENOtdBAU7XcUTAgmVcICoqBvGF3WFlUZLlHAo9l5uhu1BXGZXp1w8gdYdx3i6Me2hnqow5lIj29+KIhK8oRK49oYN5uWxhp1kHbsdbK3Y2QC+54URmpRyFEeMhjtpotH1WtTyEMR+jjcqrLisLhFUehsWA3ZnfVRB2DMRhn1QjiEDdciq0UcSX6jt5kQMyWMV/rteIMb2HY4ZOdARrqU/sR+6nIGuwHpmypKJmSBWV/CTOKX+zOQxa5g4YYmNJK7wKFhBIpz4Xm9p9IR//Kf45UOv9DZzIwGEjbw4p+RwVD4tRkShUzJBWXdAyL5AV5bhhDkwpdO5PoS3vnTaN5O70ovpTpZbn1MWJKFaSSmJGSWFLyD0hfeNCmMTa0l5upKmESyW/PfJppu5O8SxMn4dGZOQNoyuG/qIC6c7Ooa+t2NHhreMHS7S0V810eYo/FZNLWitbdUp1DNUIq3iD60m44rD2KMDaMFYlBcP0jRLVNVE7qa3+JL78q+0tHq/SHBuoZWWOcsRSRoQ/f7YEqUhB2cg2mTtoAn2QJ+Hfu4EXubcjEI8z9PIJe5igX+V1W2eHX00GIK3A9MkTumwE7pzsIdrbD5LVenL0QijREuB3CYbc41E7zw9V7uQ8TqMh54IHTnn/C6/B2nIgqZme2IvqkkTgwfQlO3A2Cy7KJ+NlLynUURJEWAfdDv8GdXwsivyu4nycv+wE8XDzx5/Uj2OEUxRnzo4Dw7kmsnTwZG72SIebfxV2VOCTcdYdr4Et2KilHjPMqrHA4jWB+fnEV950KOWIfPYWk1RCMNOMKRGVYlgVGQCcnfaxJjYqM4C00rN8a8s/gDBVB/ox+G21Cs87EE5PDI+8bT7iOoshjHWm8+TK6UXgXlRHR88h7dHP7dFrnV8ooUQ7kzw7RuO4z6Ww8Qzk8L/J6UpLX5RTrOI6sll6ngvIYEsVE0n3fHTTzp5ucrZKoDN/lIufRwX+b0g8u/Lfrl+9bQ1HBpOCRzzncfJqNxEhv+N+PZ6vE6kerpx122CTgf4cjUPhe+2A09DF4uCHCHTbBPbEtvh3cnusojAJpIaF4ZWSJHoXL6traaPMNg0dpJhhtUblTQA39IRjWPgz7Nrkhqe0gDGpfwsqvIhWhoS/RxdKUnfrlpza0234D5lEaTMaac7ZKojJ8x5IR4ARvnaVYZ9OSrSI5uMD8dGBHpUinjbT1bDSVf6Bk6+XcHQjZYzpibUQWCy6TsMQdiUzyXGxBk38vtGvFksO7Qf896Ey3Eys5Z7DiVPIcycbIlBZfEhb57bdketBScxs69qrQETlPyevoITp1K7GSM1ol+e7VZdq8bD+FpBXs+fQCUglD6Y9D6H5p+1qlIQ2k4yeilEV8lo899R64jcLfVvRSSgz3oaCnXLizx27oO4L2hj8j3svKTcslIQ10opNRSnXka29JQ9iJRZ48aWIE+QY+e3szSgPX04DhDhTxlEcvq+PJpdJ8J02kCJ9AevZOXLG+k8cF0hlnH4otRm/ZUrbaURuNO1jA6KtyyhfzEXLSEU6+oQi6L4HJlFHonDenkgbiV9vZmDFjF0LYGp9JjsaTZDniHgrQqEX1rMyK+cE45XgMfqGBeCDugUmjO0MlT4Yghzmw/X4G9gSrJiDJD58gRc5HdHIjtKiOJ5dK8Z0s0AHzfpyGWTtDlO2SfKfRwgoTpw6EfnF6ucD8vJBlUIYkh94kxZOwyKDHUKYghi5s2kY+yjtYSmnC9A9+aKAiyDIySJqTTknxwiJLLkymgJ67bqLtectf0jQSiqpRXWm+YzJJEONKW7Z6c4YP990nOkJWkHpa0GpQB/9o2hw6RQa9HKTHhCLdbAL+pbyD66OJTuN3RXc1UE9LC/XrNEbT5jpFdstyRM8RKjLD+D5cT/0m0NGuRnWl+S5HhOeh6TCd0IczfLjvav5zRWEUKeDHa0JPrxFnUCcUEPIT0FCvJdRSXQofCZp6aFkBcTUBWYNa8Xmm7BrUFOD/u+AK834l71wAAAAASUVORK5CYII=&quot;&gt;" style="rounded=1;whiteSpace=wrap;html=1;" vertex="1" parent="1">
          <mxGeometry x="230" y="180" width="205" height="70" as="geometry" />
        </mxCell>
        <mxCell id="Rq42y3tWJTyJUc1vezib-22" value="INPUT:&lt;br&gt;&lt;img alt=&quot;&quot; src=&quot;data:image/png;base64,iVBORw0KGgoAAAANSUhEUgAAALcAAAAdCAYAAADo6f0XAAAAAXNSR0IArs4c6QAAAARnQU1BAACxjwv8YQUAAAAJcEhZcwAADsMAAA7DAcdvqGQAAA9gSURBVHhe7ZwJWFPXtsf/gtUKvmqvtPquEwXEoo0gEkHoda6zlQp9ONU6XFBxBIc6tYp+WmstOGBxqLWIOFRBnFAQvKCGQUBxwAFF0RBmIRTIQHKy3kk4KiAB5IKmLb/vi+GsfU74752119lrn4XNiAVN/EUphSg5ETfu56C1nRP6d9Xn7H8P9Lj3Jv6SNMe7qkTs9QrGI/1mnO3vQ5Nz/6VpCQNxDvJNbGHX4e/3VTc5d62UQSotY98Z9l1ebvpTIEdxSSlSBEloaWMPk+acWSdRQVIqZf+tCAO5XMn9XD+anLsSUuRl5rNuoUaF/JQQrBnNh9uhZJxd64z+dktwVqJp1B2kecjMrzjpJEg97oPNfiGIPr0LO8JKYe3QCy24Vl1AmpuJZ88lS+7izA8zMKKfJ86UssdMGvxd5+NIthy5iQHw3nMFzyp7fZ1pcu4KlCVswcRB07H7njpi6MGouznaNuuIdkWpaDtnFwL8F2OAQfm5ukEZEre4YOg0P9zXBLlSJO+cjTUp1nCb5YKR/QwgLbWEPb+V5mydoCwB3i6DMNPvHtSSy561gDnPCEwHY3R5h/VtYQTCMjvBwsgAnR1cYHH/VwQ9ZsqvfU2anPsFZUiJiEZez1EY0a38Hq7KjkPSUxlaWQxDv/bt8bGVMVprWnSEshRERuei56hRMGMly5N88e0hI0xbOABt2W+25NYdiHrYo+973Pk6QNntSFzK7YkRo7qx6S7QonMn5Ani8a5df1i0UCEn+goK+QNgofkK9KHfrBB5z/7Gzs1kCxCwIwCxOfW8f6lRpuGSQIbhsyfBXLNjpkKhIAYp7QbCcdCHOjlQyrRoxMpGwG2yOesGpbgUGAzxp5+jf1u2USXCmd8vo72dPdrrjHglHkULIBs5GxPLB5n19ju4ksCg70ArtFQVQHBZBKv+luXLKGUqbqe3h4Wp9oSBEcYiPCGHDU2vUku3VSi6cx57PR3hYGMDW4cvsWLvZQjrN5EaBfmDI1i5PhEfT/2Kja5cd5hsJB3bioWj7WDbhw/7MQuw89RNzdpNJU7B2Z/cMJzPhwM7yDuiROWXPI1GouFk/HtIG82xeu16VXADnUY7oc+7nKkRYbITEbR1PsbZ8tHXxhaOC3xx5uYz9htQQXz7DHxch8LOxg5jZm9DtEj9BTAQRifAYJIbBqslM3l4lF6MDsbGrGMwEEXtQ/CNduDbtkJ6WhH7KQ0Ng+zE49g+b0y5b/Qdi0U7TuNW+SAj5Yw3Zg/lw9Z2FNy3RSNTI/kpLiUYYqLbEDwfZSgeIz3vE/D7sEsnxQPcedQZn/Basg0qPIs4iGTeVxjWTrub6ne2hmnGbnzrE42cqn6pfohTG7LwxcQ3NiH7pZFUytl0AvEVWjf6S9qRIucMlRGHLiK7j4zJclYI/cHZiBjKD/WkIcO+odCnihc2kb8nrQ4Tc8cs0iha5TCCfkx+fs6bQEznF/KpW1ceuZ8o4mwsTB6d9xhEI5edJeELyRl0wGMlhb+QLKOETSOod/+vaPl3m+jApQBy5znQTJ8weiDhTmkMxOfI08aETD+ZTScrST5HSwYOpxVnhfRSsj8tWRnG9rICyocU4DqF1p+NofDAX+nHORNo6eFYEoT4kte6w3S3TtpldGvbZJric41KOIuaOji3glK2jKTuxr1pUWgxZ9MFZJS4cRjxXY9RPsOZqiKLo/UDTMnMyp1OFXCmu/toxuh5FPSkgtOyznPK159SldzxW0QW50WDTT4imzknqVyyjO7tm0bj5h6nypJP0s/+qVRZsowKsnKoWGNUUEFGFhVrG5sGQ0bxXgPJnPWPeSHcIEvv0v5pY2jB8ScvHJtVTPkhO+lAtYMsodx0IRVoYpSSirOeUFZ5J+pOcQQtdxhC62Jeht/anVuZTnvGdyPTHjPpWD5n0wUKQmiuVQ+afiiXHTZtKOiuzxjq3rUHTfXPIEXWOVo+diL5Xqs4v1mUWfTosY5MXMUd2jbajEwtplBAhoKyQpeR44TtdP0VyWmkO5J9aJypMfEmHyCRIovOL/2cJm+vHEXVTpuV9pgaT3IJhS3sQ5YTfqV0bl7Ummqonl1BTIoCLXj26Pc+Z9QBxFHnICjuiB493q8hcWiObk5OsGnFrp+PbMKqhbugP3cr5vQ25No59DvgI2Md2Qdpbo7xzny0ksTj6KYV8Nyljznb5sLqFckm0B3JzviC3wqS+MP4YcUi7NafC++5vVFZsj46mDTmbpMh+P14UCQcQ7BmKxeotXDqj5A5GOARga4eZ3F8gblm+0aNRJiIK0kiNOtig/7WHaFOAbRThqR9q3Dwhhx1q9LSg9GAeVjtZMYdV0WO2G+H4OsjnbEqOhBf/7OGOap6hhD3IVh6Xopei0NwaL5FLVrfPqpnJzBv8GKEyyzhEXIEcy10XjGenXDHMM8wSC09EXx0Pj5+C5LlsWsxYvIhfLg8AkfdutS2WyJFgiAJJXpdYOdgzDk2m4mfWgXXhd44fNgXq1xGwGldFAprTMf18L4xD5aWVnV8WcKiY01zXIHMzDyo9AzR+r3abj76MDL6B6tAidyMHFb9nwB9Ixj9g+2XIgei7D+FYlayEd5nJStzRK/uWrwhmrMa2uop8fThw3KDZnGiDXkseX1qQt1sV1C0lLOVRNHu7VFcEqck0VFX4ndzJL+Hr5kA/Ffk06Ep5mRq7krBVdailZFRaoAbOc3dSIsHqRPLuXS6kGvSVWSpFOjmSAs2eNBQdWLpfop0X/JBmu04j75fNFiTWM4/+XYUM8J9NNGMXfvPOqk5rjHsKe8LEJ9FeK+vA6y5vV6VpCMGT/wXyrce9fHP4Z/BsrkEpaVvsizcAG3asPc9lRRSqbZbhgp5Eeux6oIV1mxeitnOPLwjjkLw2exG2PNtIFR5iFy/AhFWXvh+mTucer3D5hbHcS5bZxVDlRuBDcvDYeX1A5a4O4P3jhjRQWfxNiSTSgklNcO7BuXOWoNzMxAKYvBI2QpWDrasO5Wj94EZzIxeXqbMEiG/078wwFz7UyT18ibUoy9683rBqk4vS4zdlMhdWx0tYGbOLpOoBEVF1U+q0mQ/LNvNJmNbZoFn0Bwm451hZyhBXNAJpDfWbVOVj6S4u1zh1etSihs/L8FePXdsntULBs1N4OjcD4aSOJw48biRllPsWjkpDvfqW+xYmoxdS/awSfoWuPYyQHPTL+BkbwhJXDBO1rMepHa0a6Y/iiFhA+7/du7CGbTBCOm3Cd3J1HQs+WrdAC6hmPVTaXloTdtx5cjEuZSbU/dXfnH1D2aeI7++iYab2tCyCzLO8hJZaiDNHjSB9tyv+BkFdGxGT7Y/Q+j7xFev0QojoYKcApIwMpJIa1h6SdPp3JovaOJPKZX2drMivWne1Fm0JVxUZU+6IuzyKdCNhk7YRZUl/06uPYyp+5CNlPRakgsot0BCjExCMq2/VEbpoWvJ+f+8KaXC/jkxWXTxJ3eaPmszXRDV1N9UOuw2mCbvuk+VJB+dSb26mtGwDUnsb6grDEkKcqlAwpBMUtNVWjRzSEIXkLWJPa2+XP4Z1UZuVVEKTm9ZhV8S2OmhykLs778jXvPItyIqiGN+Q2SnxVg98oPaMlO0bPMBPviw7q92rWsu0mzBc4aTlQzX42+/rCtgb+uJB1ZgysQ1iMiVQnj1KtLVM5wRIfHEMcQ8UbC3mjQEfuOJrYdikFFbcJFdx46vF8I/IQaBHhPwXbiMa6iCqhDXgndiV3AG9Aov4swNde2mGgVunw3E+egw7Nm4H8nVFECo8hIQsHwipnx3AXkSIRKvpmsiPyNKQMgxAZ6qJT8MwEoPHxyJyag1gsuvbcOMhb8hIeYglrisxoVqJatQmBQEv51ByNArxH9O3+DsLGW3EBp4DpfO78am/cmcsSIq5CccwKpJk7A2PBcSYQISygcZmQkncFzwhO21EmkB32CJ9yHE1lqrIcf1bdPguf8qYgM8MWlVOGevSg2aNSjx+M4DSLsMx1g+t1WjcfF6ILkbRL7+V0nc6E/AtFMcu55GDVxBUY30ZED5cCc59Z5OR0QMKVLDKfxeNeGCQ/nYj77s60FhVeoTGHEaJd+4SD98vZKiXiP61g8lpfk6En/aYRIxCkoND6P72iQrH9Pu8ba0+FzVggqGxGnX6WbkJpq+8j+crRFRPqSfHa1p5mERMYpUuhB2j2uoBq2aWZSp5Pu5Dc0IFL64Q9YWcKul7NFp/HLxfzBmXHfolfyBopw7OH00EplvOIlobeeJTS6Z+HXXNXbF2vDoGw/HqO6J2OYVjGyTz/BZd215BRtV4uLxlNcPfarUe+u1MYEZcwdi6/F4HlAaD310HT4G5kk+WB+UDZPPhkFbKqQqiEP8Ux7s+FUL1PXQxqQbmDuFsB7fl7M1IvrGGDbaHEneXjiRZYKhw7pzDa+iXTNQHL0fF9otwmqXTuwocHBOXmeY7PO0fKA5mXY1fvky5pHrkdrX3Y0CI6br+9fShiMpDftol2E0/ZHf9SMXng0tOJlfQ/9K6NwCW5q0V1jlHAU9CNtLPx+4TFnag36DwbCaWcV0z+9LsrKZR6e1Ft2witn1qb3LLySseoriAYXv2UkHL2dVyB0aC3aMNZLv0m5nHtnOPaW9TohFm2bF01O0zmM7xRVWbqj3skS3YKjobhzdzKlhZF4TmWA/HUhWp0qlFLm0Hw1nE6QXiZMsi65FCOjh89kkE9CaAWPIJ+khpT5p9LWHFmQUs9+fbmgkR9A3dkPZxPm5YhllJUVQzIMXgilm9UAa99M1epj65DUSvwaGHbff/JM141oasZQ+VSfOLwe5TpqVGQI6HBBBj58/h6lAvZYluoce3vvYFrwPG647EmEsDvrtw8V4AW5J+mCiY88Xf4coF3hjzr+nYubmOM0xk5uCe7lKZNzOgWHHt/WoXAJh7AHs2heJq4JbkNpMwrhPOMUyAbbOcsW0aT8iTpP75SLlXi4UwtvINaytdKIRYRPouAN+2B8Zj5ibUlhPHoeezwe5jpr1O9pjwpQhMK6u5p5z8iaqIC8uJpmiiLJF+a9GNqaEctKO0/oNFziDjArzi2rY6nsTyKm4WEaKomwS5VdVzFBJThoFeW2kCC7CyQrzqejtClYPMhVLFfRHtohekdwAmpv+x6n6IBchLjgMYv4UjDCrectSN5AjMzYYYeK+mDzSVKf+El47/73mJueuB6o8ITINOqNTlTJUnUWVB6HIAJ07/1kEszSA5ibnbuIvCvD/Vyszk+9b8tIAAAAASUVORK5CYII=&quot;&gt;" style="rounded=1;whiteSpace=wrap;html=1;" vertex="1" parent="1">
          <mxGeometry x="230" y="250" width="205" height="70" as="geometry" />
        </mxCell>
        <mxCell id="Rq42y3tWJTyJUc1vezib-23" value="INPUT:&lt;br&gt;&lt;img alt=&quot;&quot; src=&quot;data:image/png;base64,iVBORw0KGgoAAAANSUhEUgAAAKwAAAAkCAYAAAAU0tFtAAAAAXNSR0IArs4c6QAAAARnQU1BAACxjwv8YQUAAAAJcEhZcwAADsMAAA7DAcdvqGQAAA58SURBVHhe7ZsLXIzpF8d/1SgK8W9dNtF0UbImQi4zYSm1Lv9d1rIum7VrXXbRP+u2F9Zl/9hcQtaSFXbdNkRESi27NMmHcq2USdE9oXSZpt55z/+t3pBmkqm/lc98P5/XzHPemd7nnDnPec55nocOcUCLlkaCLv+qRUujQOuwWhoVWofV0qjQOqyWRoXWYdWiQNaNOGQo+WYjRpF1A/FvgiIcWodVhSIbNwN/wGdTdyKujJc1ShTIvhGIZe5fYFcsw8saN1qHVYVBO3Qb6gihHt9utBignWgoHC0avSJP0DqsOnR0+DeNnTdFj0oav8PKbyF0106cuPaYF7wGaNQnORJO7cKu49fwGmny2tG4HZbNQ8TqOVi0cTMWz1qGU9ksf+MfRKM+scg7/xP+s3ATtnw/GyuCszmJFlU0YodlkRX8I9bJhmNr2BnsnJwP3yUHkNxQtYVGO9aa9YnNCsbKNTK85xuGsN3uyP9lCfzvNJgi/OsbQvlZgkZJyS06uv043ZbzbVLQvZBf6cDlAr5dD5iHlBD0Lbl1G0cbpCm8sA5o1KcSSjjyKwUllvBt7lv3QmnH/miqvyYMPUwIou+dRTR+vZRS8pS8/NWgKC7mLMD1gnt9ql390B5++X+gfID0bAN0MG3OCxoRyixE7juEO9bjMFHcTqMpmL0fhyCfBVieNAa+E1PhteQoOvwYiU0jDflP1I4y9QL+zLLEu47toM/LqqjhsGx+HML+8IPvznNIUxrAYsgUzJnzGZw6vg5LI0pkRR9H4N7d2HM+HYz+27CXiNBWR45HWffBmjpihPsUjHjH+B/MdZRI2z8N7hc+xMnNI6HuJ1JmRSPoyD789tt5pCv1YWovRre2OpDnZeO+0hSOI90x+d9dYfwqFVHI4L94I3LGrsScPsa8kLP55aM4uHs3/KOywOi+jf7u0zF14giIWj9GbPBObN54AFcK2qDXxEVYPHsQTPUYxK0fjUV3h2D8uIlwMcmEvGMPCOs8fhVIOuqF7SmD8LXHILR7xvVUR9iSMCyUzECgYCx8z3phcN0GxitDcXoeBsw4CozairMb3GBULmSyIN3kCc/t6eiz1A/eE21gUC5XJuHQktUIyVS306ODpr1nwHtW38rPc1gLLfh31ZGlJPPv1MM+Oo1Fw79EkMkcHAv0hK2Av6GKktNYIJ6JQJ1R2HLOG66ViiArwgdfz/FFRt+l2L5pImzKO9aAepRTU5fHiFw+CT6tvfC7R9cakQ35IZjnMgvHSlzhLd2K91tWitncECwauxFNFuzAiuFmqFCXTcPuScOxt6MX9v80DG01GnQK3PSZCi92HrZ5OlT+xuWUO+zzlN1cTyOsLKi3R3AD5FENTRnFrhtGtuYimnn4ES/jYVJpzyfdyLrLKPo5rowXakZJ2mUKPhRA4Tfvc5lgXSmiS6s+JicHS7ISzaaTRbxYDZV2FlL3aYepuiYMpf7mTt2FdvShTxyncT0oSaPLJw/RkbBYyq1FkZLLq+m9ntMo4L66PLeELi5/l2yEDjQ78GGlSB5Pu6aMJI/Dd6v1UZnrT9NEg2nFhXpmrgXh9I3EmVZEPjWkCt9XIj0iEkmMIRwkffDaZWHKdEgjZWAMRBBL+GFehZ4phg61RxP5DRw5GI1SXvyyMImH4b3tTyTdjcSWKWPw3Sku3eDv1QaTuAd+OaMw16UNdItTkJRaW6VfZWcDiJwkqK6JHkzdXCBqIsfNw4cQo7kiCFi3DWdl9xC5eQrGfhOCXJWKPELojoNIFw3GwH+pC4cG6Dn2A9jpPcLfh04gg5vRQn9YhPCeK7BqTKfKyMpTfDEC181G4MPeVbFeQ5r3w+DeeQjw8cddfmKp2Tv2ASKlsSjT7waxuDUvfH1gH0QgMrYMgq5OkLR5vvu6aNW2LZrpKJFxKx4PNVrMZJCca4bJyxZi9rw1+PlLU0SEXcELjxSw6QjcEoNeX32IvrZC6CnvQZZUi6dV2VlgB4mEc3BeXIWucTu0baYDZUY84jVTBExyLjp8ugzzPb6G1y8zYXouDFdUdSnvL4RIC9Cha1e0UuevHAKbjzDasRnnkAfg9a0nfPVmcSnIM9N1BQrEnL8Ck3ddak+H6oQRHPuLUHbpEI7cqhz8NbtXcAERVxVc58QQt396W556GaEBh3EyMgWFvEw9pYj2W4C5Hh7wrNPlif8GyPjv1k5hZASuKgSwFEvQSUUdWFpUhNLyrFzQBE0qRS+JAJ3F/dCB/9t6AiNYdbGuFkFUkX92K0JNp2FSZ328ZWWBf+kU464sjYujaqiys5UYEnNVihSiqEIRTg8Nf3hBZzH6mfF/WyCAoXUXWKswiiLuCmILdWDSpubAqQY3g40cNxDGTDzCbkuwapmrivzUAANXn8fJhd1faLO6YNjJHG1ZGaKkGRXtGo+TX4pATIEuOvV3grDiiSyyw9fiu3WBuHztDHy/eh+feF/lxlFt6KK1UITu3XvU8eoOuw51ST7kuCSNRqFOe/R1slVhkFIkxsu4f3XRxlyI5rVavw4wt3HqdjfMHm/JTdK1UBIDv30sxk3viWZcs0nnzhDqKXFPlqQ2Lam0sw7a9x0AGxW/bGliPGTcl3XbdoKwRb0VgezkbXTz+BiqzsGUpWfgPqsDw+Yta3dYDr233kJr7kNMdjqyX8GJRQH3vFa6DGdLPqDxuSyPgqJ+GECdLfrR93/xCXNZIoWHxFFxRUNJ2fsmU48RGymhfjWNZigu0HInS7LuPY/CVBU0ihjycrEiKwsx1//KHmtOAV3z30EhyeVL37XBkOxXdxo8bBLNnD698pr2EQ2yEZLtSB9KVFno8HYW9qYFp1UqQldWDyUbc0ty+vYv3vaaU3D1IPkFJ1cs4qsid6872Znb0oyAQl6impLEvTRz1Gxa7Tmkoviac+y5ovf/gDLVjyZYC0k041hFu/qAYhIgvZgJaukIcS8+YRZ0hrObXUXkKIdhBLBwEqNjQ8T7l4RJkOJiJovmvZzgWGOpjUXOKT8cTWLRQjIT05yqeqwJCtwOPY4sh4lwE+qDSYtH4iPVeSSbfQw+Z+zhfXQvtvr6Vl5b12OSSADlvSTcURVieTuzLXpD0qfmmiGbE4KdAUlgW0owY4bTE9trguL2aZzI7IEJw4TQZ9JwK+ERf+cphq2Moc/ZT14sV1tcsjnhWPnNafRY7oX5X33EFYR5+DvgJLI0S6/rDLEMGNJBU8OmFe1qDqu8J0VUEoNmDhL0rWFHBTL+9sF3R4zx2SSHFxhRjuC5feAgskePOl3d8e+fLvPfVYcSqdJI3OGqantJf7TgpVWU3j2MpStPId/8I6xaOwmq0sK6wU3lR+bjqyXbsG7mSLg6D4HrgjMgldNyPs5t/B009lPYP1sQ67WDhbkxUJQMWVrNebPKzgb2EvSrqQgClqxESL45xvy0BhM1V4R7zhEsnLEEvmtn4gNnZ7gMWYgz9PwDAf3yFEZAKMzPV33yoOgqts3fDr1Z6zDN3pDLu0djjNgIxVFHcCy5AfICNhfRUfEq00x6XIBiLiF7u2MnXvAEJaXtmkBdza3pA5/E59YelZQXe5L8vObT+H42ZDdkOUW+YIG2JC+HcrLrfuUWvGDqVabS7vG2ZGXlRuuvP5uPFFJSyHr6TGxPQ6Zupsjsuq+a1pf8iKX03pBlFPXk7EAVZRS3fjjZCu3JI+j5afapnYetvV5t/bJQFkrekyXkMPAL+lma8xLrv/VEcYW8nK2p7/ywmnv+8kQ6MH0ITdqWUC2leOg/lew5HVxXRtfvnIA8hU4tHU0T1seqXG8uDvagnpZiWny+8il6yzjAPkbscR+s3BSEO4UsF2P00dLMCnZmVUk4F5LbdIaDxBWj3d7CtZ17kSZyh4uF+rxA0NQIRkZ1vwz11UcSNj8WJzb/iM1Bd1DIFCIr5S6SrnFV9tlTCPQPRNSD9nCduwYrZg6G0EhVJGxolBWzzYL5O3CttBVMhTaws2qDpuVnpdkHuHHqD+w9eBqxOYXITM9DS0s7iMy4yFbNzgwKM1NwL+kaos6dQUigP45feID2bnOx+r8zMFho9MICqMHQa4P28gjsD2fRf8IAmFb8FCxyL+3ByrmLsFWaj1bmljC3tEWnVjrIuHQMx06GQ5qQi9y4GCSXCtDarCs6Glf1WIErmz7Hikh96N74Bd/sK8PHbrb8vWdgHyHmkDfW/3odBuYtITB5B13aP7vHxuD28S3Yn/0uFi1yRodyd6tw25dBmc5FugFPizItbwYFF2il22D6/mxDnHaT0S+jetLUA+mk5Ir2sNBb/I2aMMlbaWyfuRSqqvZkEunn93vT5/tSn8w2dRrETOkzOzby20jWccbw+u5iaHm9aN4PnmvGIWOHL2KKeJmm6AnhOsIG0d7LcTTTEi6uKqJrBSweRV3EPVF/9FJxXqXg710IM/HE4o/NniwrvthhHwdjwUAnjP6PN/YdPIS9exLguHwhuJxbyxuGof10bJhnghMb/BH34t0hNbBgWT1YTV6KL80vYK1XMB6oXUmQ4/KFeFj164/n91SZ1CBsPPE2vvWeUH3tmI+0tVKWl0q34mSUmf9PLL5qedUo8+Lp4rUcrjzUgBIp7f7takWBVhS+gJycV1F0VbVWkkkx4VKSVWUd3GeXDhpJG6JllHj3aYrJpEnpwJ5wSq5RzNYxJRAYm8HWzgrtW/4Di69aXjm6xl3Qx/4F27TqKE5F1O9bsevPi4i8LkfPSR/gHb6OUki98eUXkzF1TVRFW5kTi1s5DNJuZsOow9MUU6+DGOM/cYawcum1Gtr/caClYSktRCHbFJSfg9JWpjB5ttRhi5CTEoLtfxhj8XcunECBvAcKtDBpWfvW9zNoNIi0aFGLfnM0bypAi3bPOWs5ZXm4czEfvccN5AUGaPUSzlqONsJqeWWw91ORYdgRZvUo2LUOq6VRoU0JtDQigP8Bdj2UR2l+KIIAAAAASUVORK5CYII=&quot;&gt;" style="rounded=1;whiteSpace=wrap;html=1;" vertex="1" parent="1">
          <mxGeometry x="230" y="320" width="205" height="70" as="geometry" />
        </mxCell>
        <mxCell id="Rq42y3tWJTyJUc1vezib-24" value="INPUT:&lt;div&gt;&lt;img alt=&quot;&quot; src=&quot;data:image/png;base64,iVBORw0KGgoAAAANSUhEUgAAAdQAAACeCAYAAACLk/vSAAAAAXNSR0IArs4c6QAAAARnQU1BAACxjwv8YQUAAAAJcEhZcwAADsMAAA7DAcdvqGQAADn5SURBVHhe7d0JXBTl/wfwDwuCN5JgJIcXpJiAB6DiifeRmldqpnmk2M80q19qZfnz1/mrNPOf2q2mEt4lnqmoJSAqoiILcqjcsICwHAsLO/P8Z5fRRJfTXWDZ7/v1ophnR3b3O8/M93lm5nnGhAlACCGEkCciEf9PCCGEkCdACZUQQgjRAUqohBBCiA5QQiWEEEJ0gBIqIYQQogOUUAkhhBAdoIRKCCGE6AAlVEIIIUQHKKESQgghOkAJlRBCCNEBSqiEEEKIDlBCJYQQQnSAEmojw8Xtw7bjmeISIYQYIxXi9v6MkzJeXK4blFAbEz4Tx/7vCPIcrcQCQggxRmZ4xuY2dn9/CYViSV2ghNqIKC5/h5/lwzHNxUwsIYQQ49Ri0Ez0DN+I3bEqsUT/KKE2Ftxt+G88jc4vToIdbVVCiLEz647pE83gv+k4suvozC8dehsJxcVt2J02FNOHWYolhBBizEzhMGk6nrv0M/xj6qaXSgm1MeBT8McPATAf8wL6NBXLCCHE2FkNx8SB6fD/KRB5YpE+UUJtBJThO7A91AHjJrvCXCyrEseh3FkQni+/bIwoJvpDsTVyHLjyFUBdBepASwyeMgKmx3/G3nhOLNMfSqgGLxdndhxCiutETHCq+mak/JhA7Pl2Bca5umPG5iiooMDN7a9hhFtPLNyZIq5lXCgm+kOxNXJ5MTjrvxlvjXZD72lbEK0CFBHbsdTHHX3m7RJX0i8LzykYY3sN/n5hUIpl+mLCBOLvxADxKbuxcPTHKH37FH6db1+9FhIvg//8oViXvwz+y01xodAHExxyoGjvgW7W//yFwruRSLNygZOlEbS7qhkTISiITLWCi7OlQbVG63VbNtr6pkDSlb9xNdkEjp5D0MvOQiwn5fGQ+c3H8LUFeH3fckj+LsDQSQ7ILWwPTxdrcR2B3vYtFW58MR4z9vXAN2fWY1RrsVgPDOmYQB6jQtzBvQgtdcfwEc9Uf2NK2sLLqysQvQ/fRLhiznhnOLp5PTi4KVOv4dimxRg3bhWOpBjJibkqYiIEBdePbsKS0ePxXkBKgzpdqczLQ1EFH6hBbEuDrW9K5MuLtG9rLhlH3luAt9f7CT3wd/HS6Mn4+GxOndQLVXY0rkozUSIuP0aVjVthUmRVtEJVr+ucBG379kVXRGPfxgj0mDsezo5u/yRTve9bZug2ahg65JzCvuMyvW4jSqiGTBmOfQcjAfcRGN7eVCysDlPYe/ZC+1KGzn374NEGWxNbN4yZ4Q2Hap+84JEddhHR+j6foleVx0QIClzHzkB/B4ZqRyUrDKFR+g6KEn99vBK/VZCIar4t9cFA61vxeXy6yg+pWkJb+PcRJIzeDP/fdsDv5GF85J0Bv03+uKvvy3R8CvxefwEvvuCLX+K0vRmP1N3LMGXqZLz2UzweX6Oq1/XD1MEDPduXgnX2Qp9HByLUwb5l3n0UfDoWIWjvQb1uI0qoBqzo4iGcSDCF64iRsKtJPhV2qnup2UILNxXR0ixhqTyJRKgWEjPhMFgdSiQc/whLvggBX6PP8DAORYqynYMvykN+nbWcH1Z5TISgCDuLBGbV/I7KhOP4ePGXCKl9UMAVKcqu+fBFyMurXVBqti31pbHVNx5FdiMwc1DbsgOoqR1GjegJs8ICFOq73SKxgfeseZgxdzZ87LUFQAJr71mYO3MOZg2z1xLTql7XD/5eGrJLgbQooWf8eAXQ/75l/hxG+jiCu34EAXocQkMJ1WApEHo0EBmSrhg0tGY7BpcUgN2JgzCtFxAVFi78pdrikRN2AFs3H0CyJAdnA66L5dXFIT30Byz36Y1XfolD1NHNWDtvFAb7+iNDS69An3QXEyEqOVdxaPMWHEoyQW5gAG7UcO4zLj0UPy4dBs/Z2xAnPYotH8zH2IFLsKeug6Ijja++CUnJ2QltHxw9VUhLyYLd4KF4Vu+TlJnDaeJqfLJmKrpWMETO3HkCVn2+BlO6ab+mW9XrOqc+Pb4zAQOnCxVAGoZrT7Bz1X7fMsdzPgNgy9/CqWO3hC2mH5RQDVVhMI6fy4SJY1/071iddKpEZrJMaJlLsXePHCNfnYhhnp2gCA/B9ewIHPT7+/GWY5UksOrpjc4WzTHgldVYOtldLK8uU9i6O6FFsSO6W0qR6PQKFg13hJm5BZrVSc3UR0yEqFi5o19nCzQfOA8rl02GWwvxhWoyte0JpxbFcHzOElEJTpjrOxwOpk1g0dSQdlcjqm+Fl3EgvBtWLO4Dui3pH0pZMmRFCkj990A+6lVMGO6BjopwXLyWjZsH/HAhs+Y715PsWxbuA+BpxSHu5DFE6SmjUkI1UAVBx3E+E7D2HIAe1Rh8yiX+imU+3hgwbTcsZ82GW3NzuIwZhS7pe/DWogC0GTEAD9/MWl38vYsITXRFP8/mYomAi8e+917FwvnzK/hZgKWbQzWnM0ukobimskBTW2+M6MrjWvgddO3nhZZlf0mv9BUTISgIDU1Aj/4eeBCVGsRECApCw1Uwb/Y0vEd1BX81HHe79YNXK+E1lRS731n40L9bjC1B4di3snzZxnMF6r9Ubwyxvqmku7BqwUP/znczgq7uxeqFD5Ut+hrnHw4tn4uQbadg9+8PMbodHU4f4BKxc+kwDOo7DX5tZuIl9+Yw7z4GI50ysHfFIhxpMxLeNrWqAI/vW9XVwgvevVtAFX8SxyL0dF1JPWyGGBoFO/1vT+bU0Z0tOywXy6pSzDJjIllCLicuqxUzWUw0SykQFx/CyXayud3Gsa8jS8US7QqOLWfeM35iSQ//2WpTsdhNk5j75C0sViUsFp1j7w2YxL6NUS/UhZrFRAgK2zXbhU1YH8kqjUrBMbbCawb7ObFWQWGqmP9jk5+bzLZq4lDMzq0awCZvihGipU0x+/Md30rfq7rbUrcaQX0rOslW+1b2XgoWfWAT23kpl9VuSzduxbJYJk0oH5vijFh2K1lrBaiDfYtjKb/MZC4dnNiYL65X/j61RE0qQ1RyHUGh98CadIeHZ3X7chawdu4Ox3Jj/Cxg49wV7bWdNmHaZrJRIv3qGYTE3W+iK3Ej+AZsvHpDGZ9Y1ruqCT4DQcGJ6D11CjqbCj2E6Iu43twLnohEVE4tzrXWWA1jAqZ1dhdlejgCg+PxICrXQ3DDpi96KeORWCwWVhuPjKBgJPWZisld1EGJwqXrLeDlZQKptJbDMrRuS31r7PWtBHcCfsDZVhMxsasJCvPkyIg8jL1nUush1g2ThY0TXBzLjym1aOeEZ+20VoA62LckaOfpgc5mKtwJDkKiHu72pYRqgFQxQbiUysHU0Q1uT+l+E3IyKc7sCURsSRqunTqLiJSisheKg7DRdxHmzfsSF9VHM06GyGgZSpNuQtbCTjhc1pA8GCGx3eHjY6OpiKWpychQJeFyrDk6WDWwqsllQnp6D87GliAt/BTO3UhBWVSUCN6wGL5z5mF9iCYokN2MRqbwPSJlLWBX47mV5QgJioXLcB9ozoiVpiI5XYWkSzEw72hV4x22wm3ZgBhefRMaPSc+wKK3N+KrRUPR280dvdx6YuCswzBxtaWDak3V2b4FmDm5o3sbE6ikQQiuxTXcKok9VWIwVOzO1imsW4dOrM/yY6xQLK0bHCvIiGcH1n3KTheVlRTnZDG5rs7QcgVMLleKC4aDK8hgt/evY5+dKi4rKM5hWbk6CworyJWziqNS9Slfw1XP9a3KU75E33S+b3EZbNfsZ1mXDq5sycFcsVB3qDFlaPh7uBgiRSmaoJu7G+r24TKlkMeHQu75IgaJb2zRpi1a12TMTmUkLdC6dbWn928wSnNvIzTXE9MHi30mizZoa6mzoKCFZetKHnrQBP3fWoPJzzTGXbme65u5N95YMwW2dJSsNzrftyRPwc29I8xQgPCgy2JPWHeoqhia0pu4rp4hxPQZdH2u7NRVneHzwNlPxPyxXar/VJtGj0c+b48JC8eiS70ERYKWtvaw0vv4x3pQ3/VN0hK29lbCwZfUD33sW2bo8tyzaG7CkBt5A3d0PHyGEqqBUSVEIOoeExKqI7p0ruNdXWIDB4caDPwyChJYO9iDoqIHVN+MnH72LfPOXeCovintzk3clIuFOkIJ1cAURtzUtKok7TqhU2vafIQQUhNmjkJCVQ9iLbmFCB3PtU1HZINSguiIW1DfLW4qVIouTcpKCSGEVJN5F3S2N4P6sYLRESnQ5egZSqiGhM/BrVtpQgWQoG3HTjCYx0YSQkhDYeaITg7qi7IcbkfHCN0U3aFDsiEpvYO7yer2lATWT7ersydFEEJI49EE7dqpx3QzFCbdQboOu6iUUA1JcSISZerByBI81e5puvuQEEJqzAzW7coevcenJCBRh3f6UkI1IKq0VGSpW1MmrWBt06yskBBCSA2YCj1UMaHmZiBdh4NRKaEaEC49A5rZskyfQjubJzzhy3Hl5xzl62O+1waGYqI/FFsjx4ErXwG0zt1bV5raWMPSRPiFy0R6uu66qJRQDQiXm4M8TSVsgZYt1bWh5vJjArHn2xUY5+qOGZujoIICN7e/hhFuPbFwZ4q4lnGhmOgPxdbI5cXgrP9mvDXaDb2nbUG0kLsUEdux1McdfebtEleqeyatWqG5posqR+493V1ENVHPPyj+Tho0HrIdL2PI2hCUNumLNef8MM+ulu0hXgb/+UOxLn8Z/Jeb4kKhDyY45EDR3gPdNA+pVCDpyt+4mmwCR88h6GVX42nIDU8jj0nh3UikWbnAqT5uDW+0sTXC/aRWhGOX33wMX1uA1/cth+TvAgyd5IDcwvbwdLHWrKFIuoILYSkwcfTA4N61ePBBDalufIkJU7YglrPExK2h2DBGN+9YD3sXqR2GwsIi4b8CEwtYNH2CTSdpCy+vrkD0PnwT4Yo5453h6OZVdnDjknHkvQV4e72f0LN4Fy+NnoyPz9bysWGGxGBjokS+vKjCz6JMvYZjmxZj3LhVOJJST5+4Mca2Hj+3KjsaV6WZFQ/3UGXjVpgUWRWtUNXrOidB27590RXR2LcxAj3mjoezo5uYTDmkHH4fi97YgN9++xbvzxiDqf89B70/vdHCvCxpsyIUKXTXQ6WEajAY8rPyyxIqU6LwiSqcKew9e6F9KUPnvn3QWixVK/z7CBJGb4b/bzvgd/IwPvLOgN8mf9yttM7xyA67iGjdTjpSxww0JsXn8ekqP6RWUB+a2LphzAxvONTriajGF9vafW4d4FPg9/oLePEFX/wSp+3NeKTuXoYpUyfjtZ/itUxaUNXr+mHq4IGe7UvBOnuhj6VYqFZ4AUcTRmHTfj9s23MCv3/SH7Jd32DPnco/GZ8VhtAnmOWIlRSiRLNL8MjJrvGDVStECdVg8EJLSlmWULk0pDzRhXQe91KzhRZuKqKlWcLSfcJ72I3AzEFld8DB1A6jRvSEWWEBCis8HiuRcPwjLPkiBHyt75PiNN9NjS/KQ36dtZwf1jhjIpEIn1piVs9jlhtbbGvzuXVEYgPvWfMwY+5s+NhrC4AE1t6zMHfmHMwaZq9lu1f1un7w99KQXQqkRQk944caKLzCDsNmDULbskCi/eiRcDdToLCSQCoTjuPjxV8ipPYVAHxyIjI0n4OhqIASqhGSoFW7VmUbTNLiiWZJ4pICsDtxEKb1AqLCwqEQyzU7m7OTWLnVVEhLyYLd4KF4VuugV6F1F3YAWzcfQLIkB2cDrovl1cUhPfQHLPfpjVd+iUPU0c1YO28UBvv6i5W97lBM9Kfxxbamn1uXzOE0cTU+WTMVXSt4dqO58wSs+nwNpnTTfl2wqtd1Tn16fGcCBk4XKoA0DNf+qQBC+8AJTprr6GVUaSnIsh+EIRUEks+5ikObt+BQkglyAwNwo1B8oaYsLMXrtBJY2ejuWUb/fBPSyCmRmSwTWuZS7N0jx8hXJ2KYZycowkNwPTsCB/3+Ltdy1Ci8jAPh3bBicZ8KbhIQKmNPb3S2aI4Br6zG0snuYnl1mcLW3Qktih3R3VKKRKdXsGi4I8zMLdCsTmomxUR/jCi2VX5u46SUJUNWpIDUfw/ko17FhOEe6KgIx8Vr2bh5wA8XNGMAH1aIy/vD0e1NX/SuoLEgsXJHv84WaD5wHlYumwy3BvYwIkqoRoJL/BXLfLwxYNpuWM6aDbfm5nAZMwpd0vfgrUUBaDNiAB5qKApNwVyEbDsFu39/iNHtKq4m/L2LCE10RT9P9eMbRFw89r33KhbOn1/BzwIs3RwqHHKBEmkorqks0NTWGyO68rgWfgdd+3mhZdlf0itDjIlKugurFjz073w3I+jqXqxe+FDZoq9xvkDzrvXGaGJbzc9tdLhE7Fw6DIP6ToNfm5l4yb05zLuPwUinDOxdsQhH2oyEt025CoDc4O04Y/821oyt5DnP/D2EhiagR38PPFQDGg71sBliCEpZ5PqxrGuHjqxLl7Hs65ulYnl1FbPMmEiWkMuJy2rFTBYTzVIKxMUHFCz6wCa281Iue3htbQqOLWfeM35iSVWtqJWKxW6axNwnb2GxKmGx6Bx7b8Ak9m2MeqEuNIKYFJ1kq30rfy9OtpPN7TaOfR1Z0zrzJIwhttX/3MaoWBbLpAnlY1OcEctuJT9WAZgi6gD7dsclVq66aFNwjK3wmsF+TnyyiBefWcn6dxSOpR2c2Ss7M8XSJ0dNKqNhAWvn7nAsd/HVAjbOXdG+3GmTEtwJ+AFnW03ExK4mKMyTIyPyMPaeSRXakEqkXz2DkLj7TXQlbgTfgI1XbyjjEzU9gBrhMxAUnIjeU6egs6nQQ4i+iOvNveCJSETp/b55NSOJCauPWYkae2wr+9xEzcLGCS6OluV6mxbtnPCsXfnztCW3A/BTYCs8P6krJAV5kGdIEbDnjObuamV6OAKD4/GgBlwPwQ2bvuiljEei7u4l0hlKqOQhPDJOfIBFb2/EV4uGorebO3q59cTAWYdh4moLSXEQNvouwrx5X+Ki+mjGyRAZLUNp0k3IWtRiMLY8GCGx3eHjU3aKpzQ1GRmqJFyONUcHq4ZSNQ07JpxMijN7AhFbkoZrp84iIkWHE5c+MUONbRWfW1yLVI3POIm1C/+Nb75YjOHu6ji6o0+/mQiAG2wlSgRvWAzfOfOwPkRTASC7GY1MYZtFylrAroLrrPVK7KmSBu9JT/nqAscKMuLZgXWfstNFZSXFOVlMrqsztFwBk8uV4oKhqOeYVOOUr+Gi2Bo7riCD3d6/jn12qrisoDiHZeU+eQWgU76kASiFPD4Ucs8XMUhsHVq0aYvWuhrMJmmB1q11dwt73ajnmJh74401U4TWvLjcqFBsjV1p7m2E5npi+mDxfIRFG7S11FUF0D2qKqT6+Dxw9hMxf2wXGFra05v6jomkJWztrRrns3EptkaORz5vjwkLx6KLgRxwKKEakOI8cS5fVoS8+rggL7GBg0MDG/hV3ygm+kOxNXISWDvYQx81gC/IQ6nmYMqjMJ8e32aUJGb3T3WYwoy2HCGE1IqkSROYaJ6AaQJTHR5M6bBsQMybmwubX2BiDuFXQgghtWHRTDyVb4KmOpyCjBIqIYQQogOUUAkhhBAdoIRKCCGE6AAlVEIIIUQHKKEaK45DuTlH+fqY77WBoZjoD8XWyHHgylcAdRVodCihGpn8mEDs+XYFxrm6Y8bmKKigwM3tr2GEW08s3JkirmVcKCb6Q7E1cnkxOOu/GW+NdkPvaVsQrQIUEdux1McdfebtEldqPEzU8w+Kv5MGTQXphomYskk4KJm54PU/DmPFc7Wcw4WXwX/+UKzLXwb/5aa4UOiDCQ45ULT3QDfNQyqLkHzlPC7dVeEZj6Ho37Eunk5az6qMiRCVpCv469JdqJ7xwBDvjnXyzFZdKbwbiTQrFziVe/pLHWm09U2BpCt/42qyCRw9h6CXHT1eXDseMr/5GL62AK/vWw7J3wUYOskBuYXt4elirVmjrvctZeAq+CzcCxlrgoEfB2P7y2Wf40lVunfxcilOfv82pvT1hJfHQMxY+RMuJHHiq/WLS7+CAxuXYZLms/XFC8u/xZEb2eoTCci9eQRfLxqBfh798PySb3A+pWF85gZD0hZeXl2B6H34JsIVc8Y7w9HNq+zgxmfgzJersf73y4g4sxXLJryEjddq/KAsw1NZTIQ6lXH6S7z31e+4cj0Q3/9rIl7ecK3mjw/TE2VeHooqOH2mTL2GY5sWY9y4VTiSUk/n2Ay2vimRLy8Str4WXDKOvLcAb6/3E3rg7+Kl0ZPx8dkc7evqmCo7GlelmSgRlx+jysatMCmyKlqhqtd1ToK2ffuiK6Kxb2MEeswdD2dHNzGZNux9q8Y0U+RXpuhP9k7vTszZayULLBTLGoxcduINT+bcwZX965BcLBNwmezEmz5s7MqjLKk+HsqiF6UsbO1Q9qz6aTOdh7J1V57siylD17FhTkPZR6Hln7ZRGnOKnZQqyha4DPbbXFc2aWO08O6V4VjWlRAWJT4QwlBVFBMhKOz0CSkriwrHMnbPZT3Hb2S3qtgEXOYVdlGq76AUsz/f8a3wgcscxzEufRubXecPGC/PIOtbJU+bKTi7lX17Lkv4JAJVMtu3qDdzeWELi9fVk3AqwiWzHTO7si7Ok9lWzVPSH8WxlO2zWPcOz7Jpm+PY42tU9bqeKEPZR4Od2bB1oaxcDainfUvxxxLmoT6WdujCpm1JE0ufXKU9VDVVfASkcsCy31B4NhcLGwxLDJ31PBxMC3Dpz3PI0ZQpcWv7O9hashTffTIO9o1oZmvdTT3I415qttDCTUW0NKtcq9rMeQRGuTQTl1QoNe0Mb2/HSiYIVyLh+EdY8kUI+Fo/BIJDkaKsTcoX5SG/zlrOD6s4JkJQMHy0Cx5ERWWGTgO94VBJ3VImHMfHi79ESO2DAq5IUdZS54uQl1e7oEgkQkWRmAk1pj41tvrGo8huBGYOalt2is/UDqNG9IRZYQEK9X0BTWID71nzMGPubPjYawuABNbeszB35hzMGmavZbtX9bp+8PfSkF0KpEUJPePyFaBe9q16mnqQQ8qFYMSrmqPXAK8Gec3Ios90THIxRc65fTiaokL68Q+x+lRv/Od/U+HYiJKpmq6mHuSSArA7cRCm9QKiwsKhEMvLUabgr29W43fLBXip1/3q/igeOWEHsHXzASRLcnA24LpYXl0c0kN/wHKf3njllzhEHd2MtfNGYbCvPzLq4tzZQ6oVE+Fgnnp+E947aIn5s3s9OAg8is+5ikObt+BQkglyAwNwo1B8oZq49FD8uHQYPGdvQ5z0KLZ8MB9jBy7BnroOio40vvomJCVnJ7R9cPRUIS0lC3aDh+JZvR9zzOE0cTU+WTMVXSt4wLa58wSs+nwNpnTTfk23qtd1Tn16fGcCBk4XKoA0DNe0V4A62bceqJepB/lsBAdFotS8h9BqtBILGxizZzFlmieaKUKx5/N38dZ3pnjtm6XoSQ+peIQSmckyoWUuxd49cox8dSKGeXaCIjwE17MjcNDv739ajrwcUWdO4FKqErJj72DBJyEoEF8qTwKrnt7obNEcA15ZjaWT3cXy6jKFrbsTWhQ7orulFIlOr2DRcKF3Ym4BHdbxStQgJsLBXC49gxOhKVBmHMWqeZ8iRHtQILFyR7/OFmg+cB5WLpsMtxrWRVPbnnBqUQzH5ywRleCEub7D4WDaBBZN6yQoOmJE9a3wMg6Ed8OKxX1AtyX9QylLhqxIAan/HshHvYoJwz3QURGOi9eycfOAHy5kPqgAdbZv6Vvld/nK/8DSQW/ijOMKHP59+eOtL1USLv6VB5ehz6GymwdLwn7BB79eg7Kap0Mk1kOw4cOp4lLV+OxDeH3Y2/iz2B1v/u6PpS71WK1LwrDt/V9xvbpf1sQag19/D1Ocq2raPtldvlzij5g9/H+IcZ6Bj3/8L8bZmUIVsQEvTN6KTLf5+Oy71RjW7tGNyCH5t0WYvNEGX/31PwzRElY+0x+Lxp3B2BM/YlpbsZCLx74PPsOJtIpuBhNahR6+2LC0L0yufoZJvmEY8uk3eGdkKxx9bTj2ev2OX+fbVXX65InVLibCv0v6Db4Tv4HNhvP4zEdrULBn4TgEjj2B718Ug1KDmFiUhOPz8b646vMJNq4aiZYB/8KoPZ44uHs+2vNS7H53PQL/yUa4FxONYsfuaP+gx9IErq9swIqhZeeU+MxdmD/4N/Q68AdWdNd7F0rDEOsbL92F9786g6z7uy5/D7FR6oZN+38SpZkb5n79JobcP13H5yJkyybEDH4brzS0o3t94hLx08wR+PKWE6Z/9iPWjbeDqSoCX0+Ygu8zXTHvf99j5XCbx/bxWu1btaCvu3wrTahFp9/BsEWH0OrVvTjyfu9HHvKrRNSWl/HyiUH47ZCQbCs5na2KP4PfzidAVd2E2ro7XpneT1yqGp/7N/4zeT78EtrhxZ9P41OferzYq4pHoN95JJSKy1WRtEb3sVPQ17aq9PGkw2aUyIqNh6JdNzg+aP0IvYjYuyht3xXtKzgW8KnbMHdGLBaf/hT3H5r/sMLjb2DUDjfs8VsI+6q+wmM4xP3fVEw7Oxr7970Gp9LzeH/E12i/7QCWOtfF1Z3axUQICnbMnonYJafwsbajfuFxvDlsB1z3+2GBQ42DAi72W0yfHIhRh/ZhibMK51cPxzd227BvmbOWa15KnFr5BpKWbanwveojoTaK+lb8J95dkYSlWyp6ryLcOvgTLjvMxUuelnpvABoaZWYcbhfZoKvjP7FRyuKEY+MzeNauwgqg133rPn0l1Eru8lWyix8OYs6d+rH3zz1+N5Xi+jb2+b+msT4TvmG36uxWMS2KY9juxS+w5Z+8yUZ07sQ8/nWY5Ygv6Vrd3LVZkVIWuX4s66q+M63LWPb1TX3dsVnKlA/96YKzH7CX115gBZqlYpYWdpoFx+ZrltTLwWuGsknrr7K4mARhqYa4FLZ9Zi82f1e65m7J0vDP2fiRn7DQmOtMek/7Xav1pbRcUM6xtbP+w4LKgsKK066yM0Fx7EFUgj5gw8ZvYFdjY1hCkVhYbRxL2TaLeczdxdLLgsK+GDOKfXYxlt2IvKeJU3mV3+WrxmXsYC/X812+FWvA9a2Su3zVx8fbhzeyrX/eZXK5nOXJc1n6zT/YntMpWrYRqUzd7Vv/KD6zkvXvqL7L15m9sjNTLH1yFad41S0EhaaBtfaEd59HWgoFV7D7lCWmjGtfv60yoft/5qN3cbrnOny28l+Y6tYEuef243j6gwtfj+EVhY+N2eOUSqH/Vzld3FlmCPKPvY1hAybhzfW7sH/vTuyO8cKHqwaUPTW/OAgbfRdh3rwvcVF9kyQnQ2S0DKVJNyFrYVfz60fyYITEdoePT9mpn9LUZGSoknA51hwdrOq1ZpWXdwzvDB6IyW9swO69+7Br5y14rlsJb01QlAjesBi+c+ZhfYgmKJDdjEam8D0iZS1gV8GNIxWTIyQoFi7DfWBTFhQkp6uQdCkG5h2tary/cTIpzuwJRGxJGq6dOouIlCLxlYbBMOsbj4wTH2DR2xvx1aKh6O3mjl5uPTFw1mGYuNrW7zHR0NTpvlUHxMT6GFX8VjbdqSNznefPsso1ueQsePMGFpDMseJjy5lnNXqoiiNvsn6ursy9R/V+eo39XPyXlSlg1/5vLpvxwRmWqfl8HEvb9Qpz7/gsm75F2/iqQhZ1+HM231s9ZlXd/FGxuG2L2PLdaaww8QLb/uX37ELZH3oMdy+M/fbO86ynx0y2dtNBdl1sPWmlOMLe9tD+vbT+uI5l/7v8yLhHrequh5qbGMWiYtNY3mNvwbGCjHh2YN2n7LTYOizOyWJyXZ2h4AqE1n51YlH3SnOTWLQ0jqXJH487V5DBbu9fxz47JfaZinNYVq7OgsIKcuXlx+6VU3UPtWFrwPWt0h4q0ZX62Lf01UOtIKFyLHmbevCvE5u0Keah5MSxrMBNbOPxDOE34UNVM6GyIjnLzJAxWTV/MrPud/ArUsxidi9mI2Z+x249vD/c28sWde/Iug7/lIU9ej5Imcjioo+yd7xGsf9dFf6R6g774cVx7Ivwso1YePRttnBrRQOdVezO1qnMe8UJIS1XpZjJZdq/l9YfWRbLr1YOqauEWplilhLsx345FlfJAd74FCeHsN9+Osbi6iUoHMtPS2L36qM66F091zcun6Ul3RP2PFJf9LVv1SihcmkscP2/2HzfL9iplMqT3eNnJ/g8RP7xFT74/rLQ4eaRFrwX+y6mCJ1t4aWs0/juKEOPtokIv3IF4XdzoVJk4NbVCCTmVXyaFU1bw7qdDWyq+WPdtuIRr3zmZexcPQsvf3gKmYokXLl0V/icAJdyGb/vC0JiKaCK24n33vwa/sHJms+tYe4A+8wgXGraD4O6m4PPOI8L97wwWLxJw9QUyMnM/mf9h/H3EBqagB79PVD17U4WaG2j/Xtp/bFpi5ZPMKa0Tgl1g7OfiPljuzxyg5ox45HP22PCwrHoUi9BkaClrT2s6upeo7pU3/VN0hK29laVTDJB9Ku+9y1RSQSO7T6Ov058j8+3XRMLtavR5Pjc7f1Y98lR3J8SlGXfwsW7zdDLow/Gv/MpXnJpyFWvBNc+m4BlOavw5xdDodjjixlhsxDwxTA0gwo3v5qFLR2/w7fTxNlPHqajO8uejApX/zMSs7bfBWfaEXP3nsKHfWhXJ4SQmio6/BoGLz+BHJii16oL2PearfiKNjzkt28g8e5JfH2mL375ZKhY/rgaZQfTztPw35+34edtZT9bX++PNh0nYe2PXzTwZKpWijt3MvGcl4eQQEsRE3kbjq6umhsb+Kwz2B3uipfHlCVTZXo4AoPjHwwuV14PwQ2bvuiljEdisVhYD3Q39SAhhBivmk09KIFlZ2dw0hz0nuIllmlnRIflpnAb6IEi6QWE/HkAMS27oeT6GVwKOozv/u8Seq55B96aM80N984yXU09SAghRq0mUw+q4nDqxx2I7LkCS/pUftHP6J6HWiRLQHaTZ2BvZQ6uIB0pBS1hZ9uy3IB5vlCGhBPfYY/lKqweIfRhlbnILm6Ftpb1OWRGh89DJYQQI1Yvz0NtjJq166BJpmqmLW3h+EgyVSvNvY3QXE9Mvz9Vi0Wbek6mhBBCGjq6EveYBnJnGSGEEINCCfUxElg72JfN1EIIIYRUEyVUQgghRAcooRJCCCE6QAmVEEII0QFKqIQQQogOUEI1IMV5RdAMGmZFyKvHGZv+ocBNv/fx1gf7cEs9BwapJoqb/lBsDZYiAv7vr8B/9kZr5mfXJ74gD6WagymPwvyqHt5ZfZRQDUiDm3qQy8KlPw7g8IEAXMmp5OEIpDyKm/5QbA0Wl3UJh/f/gYMBV6DvTVezqQerjxKqAWlwUw+aOmLej6dw/ORWzLKlqlRtFDf9MZLYKiL88MEbH2J/dOPphps6zsf3p//Ese9egt43XU2mHqwB2pvJE5G0doCzQwuqSDVEcdOfxh9bDlmhh3FQ6IkfuZyDxtMPl6CVgzPsWxjulqP9mRBCDIopHBf8gBOnTmLzbFs6iDcgtC0IIcTQSFrDwdkeBtyZa5RocxBCCCE6QAmVEEII0QFKqOQJ0Ji/2qG46Q/F1mDvAK7Dcaj6QgmV1B6N+asdipv+GH1sDfcO4Loch6ovJkwg/k4aNBWkGyZiyqYoqMxc8Pofh7HiubKRVPWJz0tCvPwpdKEhIDVCcdMfo48tn4ek+Dw81cXQblrikZ8UD/lTXfQ+dEYZuAo+C/dCxppg4MfB2P6ytfjKk6F9mTwRGk9ZOxQ3/TH62BrsHcA0DpXUGROYmFvBtn17tLdtAzOmmTOJEEJITUmaom37Z/DMM8+gVZP7U7o+OUqoBqQJK0R6aipS03NQUjZNPiGEVFtjnLKwVjgFMlPTkJaWDqWkiVj45CihGpAm5vevmQrJlPIpIaRGGuuUhbXAmPj9JTCjHqoxMkET9RMSNL8LlaFB7A00RKF2KG76Q7GtWAOfsrAuh83w93skTYTjqvirDlBCNSDmTcQeKitFqaoBZFQa/lE7FDf9odhWrgHfsFSXw2Z4VUnZ81BNzITjqu6CQcNmDEjenvnot+ocSiT2mLPrNNZ6W4iv1B8a/lE7FDf9odgaqrobNlP0uy88V/yJYpN2mP7zX/hsmG6OpVTfDEgTCwuUne0vRUmJ5pd6R8M/aofipj8UW0NVd8NmVCWqsmuoJuZo2lRTpBNU5wyIxLINWqu3GCuBkq4PEUJILfDC8VMcJyGxRBsruinJKJk+9ZSYUBUoKFCVFRJCCKkBhry8grKEatIaVm11lwYpoRoQiZBQ22hu8+VRIJeLt30TQgipPg7yvPyyhGreBk+1ooRqlCRWVrDUbDGGfHkeJVRCCKkxoYcqL+uhSiytYKXDLEgJ1ZCYPQWr1uouKkNBHvVQCSGk5njk5xVojp+SNtbQ4SVUSqgGpYkD7J9Rb30O2Rky0FVUQgipIT4bGVllwyTMnnGAnQ4f2kUJ1ZCY2qFzh2aa2ZKKM1KRyZUVE0IIqSZVClIz1P1TU9h26ohmZaU6QQnVoDRBp86OmrGofIZQKaiLSgghNVOahlRNb8QUjl06wbysVCcooRoUMzh0doB6HDKflYY0GotKCCE1wqWlQKY+4yt5Gh07tSor1BFKqAbGwulZOKjP+atSkZhMXVRCCKkJVWIi0tRnfJt0gnNnHV5AFVBCNTBmTr3hbi1sNlUiYmOLxVJCCCFV45ARdxv3hIRq5twbfZ7SbQqkhGpoLHrBq2cL4Zdi3I65XYs7fTlw5cbb8A3kUXD1iOPKD0ESAmLsIdEZiq3R48ofcIQqUJ81QIWYW3eEo6AEz/Tpiw667aBSQjU8LeHR9zmYCxUj8UZE9R9zlBeDs/6b8dZoN/SetgXRQiZWRGzHUh939Jm3S1zJuOTHBGLPtyswztUdMzZHCRFV4Ob21zDCrScW7kwR1yK1QbE1dnmICfTHljfGoJfbNGyN0hxwsGPJMPTuOR+7U+opqariECGVg5m0hntfV+j6eV30+DYDpIreiGnPf4NIq2n47q8vMbza933zkPnNx/C1BXh933JI/i7A0EkOyC1sD08Xa3EdI8PL4D9/KNblL4P/clNcKPTBBIccKNp7oJv61HqjUoi7N9Ng1d1JnHFLz4wltookhP0VhhRJB3gM7oX2Onx6iaHjZX54dch/ULB8L5aa/o1Cn0lwyClEew8X6HAK3WrjM4XPM/B9/GU6BB+f+wUz2+n2QzS2I4ZRMHMeh5Hdm4Ddu4rL0po8x02Ctn37oiuisW9jBHrMHQ9nRzfjTaZqkrbw8uoKRO/DNxGumDPeGY5uXgZ4wFciX15UwelUJVKvHcW3i0Zj4qoApNZV58AIYsslB2DNghX42k/oja2egXGT/4vzen46tio7Glelmahwz1dl41aYFOLcBY+r6nUdkrTtC89uQhXYuxE3e7yCcc6OcPWqn2Sqprh8ETeE792y/zgM10M9pIRqiEy74Pnne8GcS8TF4ATUZH4HUwcP9GxfCtbZC30sxUJd4bMQdjFKOPwYElPYewq9ilKGzn37oLVYqjN1FZPi8/h0lV8FybIJbN3GYvoAh7IJwetMY49tIS4cuYtRm/dh16/+OBrwCfpn7Mb//aa+RqcnfAr8Xn8BL77gi1/itL0Lj9TdyzBl6mS89lO8ls9R1es6ZuoAj17tUco6w8tD5zVAqAJhCI2qbg1Q4npwGPLQBoMmjYKNHrIfJVSDZAqH55+HZzMVYs4HIqkGewV/Lw3ZpUBalNBC1Xbw5RUoLHrkBU4JZVV3PxUn4MR/F2N9MNNMPFErXBEUmn2DR5E8r+IWuE7xuJeaLbxXKqKlWVp7IYYfEwkkwp5uaqrjOzCq1MhjK3x2u+GzMFDsbpnajcbwnmYoLCzUX8NFYgPvWfMwY+5s+Nhr++YSWHvPwtyZczBrmL2W2FT1uo7x95CmPuCkRkGq/YADReGjvX8OyiorgJAeE47j48VfIoSv5rcouYFzFzLArIdhwrA2YqFuUUI1UBLbcZg+whqqG2dwKrmaGZVLxpGdCRg4vRcgDcM1hVguUkQF4MsFozDwzQCh7S2sHrcdS5b5IV0pQ9jO9fjxQkUHxRxcPbgZ3x1MhiQnEEeuq/91DXDpuPTD6xjR62Vsj5Xi2LcfYOGogfiXf4b299MhLikAuxMHYZoQkqiwcDwSEqOMia40+tgKyc3J2fqfg6gqFSlZ9hg0tCv013Qxh9PE1fhkzVR0reBarbnzBKz6fA2mdNN+y01Vr+sOh+TDO5E4cDp6mkThavhjBxwc+d8CjOn/Fo5oKkA8dixaBv90JWRXdmLDDxeQXcEG4XOu4tDmLTiUZILcwADcqEYVKLl+AmeF9TtOnIEhLcVCHaOEaqgkbTFmyWx0N7mOEwG3Kz11o5QlQ1akgNR/D+SjXsWE4R7oqAjHxWvZuHnADxcy1bW2BNlNnkUPaxVsOzqiifAXk86cQKp9d1g3d4D3DBfE/Lwfd7W9kcQK7t6dYd5sIOa++zpecFcP66kBU1u4O7WA0vE5WEoT4TTPF8MczdDEopmeKqgSmckyFCmk2LtHjpGvTsQwz05QhIfgenYEDvr9LfbejSkmumK8sS28tB/Xur2JRX30nagauOJMpMiE3n+kP/bmjcKCScPg0VGBayHXkB1xAP5/Z2oaLiXZ5njW1RqcbUc4NlE3wE7jZKo9XKybw2HADLjc+gUH7mg/skms3NGvswWaD5yHlcsmw63KKqBEWMApJLcYhIULPHR+d+99lFANmJnLHCweY4nI3w9oLrRrxSVi59JhGNR3GvzazMRL7s1h3n0MRjplYO+KRTjSZiS8NRcTzOHgkIngi03Rb3B3mPMZ+Ovve/AY0r2stS0xg0lOJrK11m8eORdDkejaH32ai0UCLm4v1iycj4XzK/p5DVtD1efcSiC9GA6VcEB7esBIPMuF49rdbujnpZ9mJJf4K5b5eGPAtN2wnDUbbs3N4TJmFLqk78FbiwLQZsQAlN2v0HBjopLuwqoFD/07380IuroXqx/+24u+xvkCzep1xlhjy+cGY8dpe7y1doxers0ZDg6Jvy7FiP79MGN3G8yc7Y7m5t0xepQTMvzfxJLDbTB8gI0m8Zg72CMzKBRN+w2GizmPjPMXkOM5BC6aCmAKU5McZGqvAELA7yE0NAE9+nvgoSpQMflZ7D+eDscZr2GynR43kHrYDDFcpdFb2PTn+rJ/n8gVSx5XLItl0oRcxonLasUZsexWcoG4VEZ59TM2pt9KFqhgjMvcwxYPLftdrfTGV+xF330s6+E/8kABO768L3vpx6Ry71Ftqlj27cQebNrmWKYSFovPrmaDJ25iMeoFvShmmTGRLCG3XESYLCaapZQPieHEpOgkW+37E0uq8M04lvnry6zHuA1MWioW6YURxlYRxQ5u+pVdLvedjVixjMVGJrDyVUAoi04WttxDlFfZ5yP7s9VnNBWA7V3oU/a7WukNtn6qLzugvQIIVeAYW+E1g/2cWJ2Yq1jSjjmsZ5/F7ECafreRUbelGgOzrgvwwcKnce4nf8RX0JizsHGCi6NludMRFu2c8Kxd+fMkpXduI6uHJ/o0E36PicRtR1e4qs+N8FkI3BmOHnPGiLe7K5F+9QxC4sQmuvI6Ll63gWdvJeITNXd51AifcQEhib0xZWpnoV2qQnTodTT38oJJpLT6E1fUiAWsnbvDsdxgTAvYOHdF+0dOHVU7Jsp0hJ8JRvz9XksDjAnP9BLMRxhZbEtu48gPZ9Fq4iR0NSlAvjwD0j/2ILDOxiY1QBY2cOruWH6ss7qsqx3KVYHSO7ib2QOemgoQC+ltB/QoqwDIPr0L11znYJR4w5cyPRyBwfH4pwqE4IZNX/RSxiOxqhlYi8OwY0cU+rz1PibZPvyhdE+/f53UAQu4LvkPZhXvwXencjTXJmqrqdsgeBRJERT8Jw7daoFuJddwJjQIAVu+xeXe7+PfA8RTsMVB2Oi7CPPmfYmLwvGMk0UiWqZC8s0MtLCr+dUJeVAwYrsPxxDNubJSpCanQ5V0CbHmHWFVzzW0ujFRBm3Aa6/OxcIvLmqWG1ZMOGRGnsa+wBiUpIbj9NkbSC0SX6pHBh9bPgN/rnkVK7/+AkuGuKOXm/Dj3h+zD5vAVc8H7kahqTsGeBZBGhSCUwei0aJbCa6fuYTgP7Zi8+VeeG/lAIg1AMEbFsN3zjysD1E3oDjIbkYjU5WESFkL2FU6kQaHhL2bcdp+OdbMKHv0pV6JPVVi4AqvfMWmjv+IhT5yWq3GFDJ2N/EeU6p/V+WztIQ0lv/YqTCOFWTEswPrPmWni9TLxSwnS645faYLXIGc5Wk+QANRnZhwBSwjfj/76JNTYkEdx6TKU74NFMXWyCmY7G4Su1dWAVh+WgJLe/yAI2yjDHZ7/zr22anisoLiHJaVW3UN4DIOszdGzWM743RVWypHUw82GiWI37kcH6UtxLcrPcWWnb4okRpyECdzvTB7bBfo8gG9BkuZgosHTyLX82WMcaqHiPAFSE8thbW9lR6HbNQTiq3RU6ZcxKETOfCcMxZdqlsF+EycXP0GzvlsxCdj29XJ6VhKqI2JUIFOr30Xl0atx3uDdD0N0kOE90lKaQ4HhyrvVTcafGYSUps7wJ5ConMUW2PHIyspFc0c7Mtfg60Uj9RDK/Hfu7Ow/s0+Nfh3T4YSamNTnIIk+dNweJra0oQQ41WUnIS8ZxzwtN4vnP6DEiohhBCiA3QrGiGEEKIDlFAJIYQQHaCESgghhOgAJVRCCCGNB5eN5OS8xye5USQhJuGhCZi1UiApJuHBjExllEhPykB1Hu9HCZUQQkijwGeF4KdPf8VNlcU/ya0oEX/9uAozfMZi1eE0aJ+htQiJ53/Cu9OG4fl/H0ZauZXMYJJ0Et9tv4CMCqZ3vY8SKiGEEIPHZ53H52/7o/XcZRjTUZySks/A9aBY8GZyJGdWNO8zj4xrQYjjTCFPyhT6o48yxdPeL2N2h/P46PNzFT6jVY0SKiGEEMPGJeP3NR8jafx7mNbhoTH4kqfhPmI4Bg7oXslj9SR4uucIDBs8AN0rXEmCtkN8MTr9C6w9lFxBL5cSKiGEEAOX/9dmbLrqjinjn9aa1EzE/1dKvVJlK0qsMWKqO26s34hAuVj2CEqohBBCDFg2TvsfQ3aPvvDU8xyDzTz6w63gJH47ki6WlEcJlRBCiOEqvorgKwq069gBzcUivWnaCZ2fKca1kCtiQXmUUAkhhBgsPisRyXlAq9at9Z/QJFawtDSBIilBLCiPEiohhBCDxUpKUMqEZGZqVr1rpU/EHOZmwnsWah/PSgmVEEKIwTIReqYthUxaWloC/T/pRUjenPCeTZuKy+VRQiWEEGKwJK26oNPTQG72vQqHs+gMn4e8fIZmHTqLBeVRQiWEEGK4LHpgYP+2uHc7rsJJF1hRsWbCBsbzFfdiWRGK1Sup16loJWU8bic3g8fgfmJBeZRQCSGEGLCWGDR3BpzjgnEx55GMyssRc24/vttyFHdUKtw5tQ27Ay4gVv7wejzkMedxYMsWHLutgurOaWzfFYCg2McHmxZdDsa11mMxa4yNWFIePWCcEEKIgSvApc/mYkvbL/Hz4i4wFUt1is/AwX+9gnOjf8HGye219kaph0oIIcTAtYTXW59hRMz32BevEst0SYW7+z7H8c4f4r+TtCdTNeqhEkIIaRwUcTi+8xS4wXPxvIuupk1S4vaxrdifNQiLX+6DNpV0QymhEkIIaUQUkMtNYWkpPnHmiamQJy9GS8uWVZ7SpYRKCCGE6ABdQyWEEEKeGPD/aZGOKA1eU20AAAAASUVORK5CYII=&quot;&gt;&lt;br&gt;&lt;/div&gt;" style="rounded=1;whiteSpace=wrap;html=1;" vertex="1" parent="1">
          <mxGeometry x="230" y="390" width="532.5" height="200" as="geometry" />
        </mxCell>
        <mxCell id="Rq42y3tWJTyJUc1vezib-25" value="WEIGHTED FEATURE FUSION:&lt;div&gt;&lt;span style=&quot;color: rgba(0, 0, 0, 0); font-family: monospace; font-size: 0px; text-align: start; text-wrap: nowrap;&quot;&gt;%3CmxGraphModel%3E%3Croot%3E%3CmxCell%20id%3D%220%22%2F%3E%3CmxCell%20id%3D%221%22%20parent%3D%220%22%2F%3E%3CmxCell%20id%3D%222%22%20value%3D%22INPUT%3A%26lt%3Bbr%26gt%3B%26lt%3Bimg%20alt%3D%26quot%3B%26quot%3B%20src%3D%26quot%3Bdata%3Aimage%2Fpng%3Bbase64%2CiVBORw0KGgoAAAANSUhEUgAAAKQAAAAdCAYAAAAkcMf8AAAAAXNSR0IArs4c6QAAAARnQU1BAACxjwv8YQUAAAAJcEhZcwAADsMAAA7DAcdvqGQAAAylSURBVHhe7ZwHWFRXFsf%2FihVZMQuJRkVRDFYUkSLoWqPGtjYUWywxir2gWKLGtpZYMLagZl1UxBIRrKA0IUpTmgU1o4g6tIERBoEpMG%2FOPmYeShdpjpHf9803c8998%2Bb%2FDufdc%2B6976MWsaCGGtSE2tx7DepOVhzu%2BV%2FD%2BXMBnOHvSU1AfipoNIAi7Ci2uMdwhr8nNQH5qdCgEUTJKWhrbskZ%2Fp585gGZDYkkm31n2HeZyqSOSN8gM%2BshgsIbwKSXAWf8%2BCjEWZAouAYHI5NBzn0uD59pQCogjL6IDcPNMOd0FK5ttEafnitwTcx1qwviv%2BDm8AuOXArAVcf98M40gVXXelznx0SMJ1d%2BwY%2BDLLHichbbZhBzfA6WnE6CLDkMLruPIlBYKFLLyCcZkExSIJwPOCNYUL6Lzr1s3faGaFKrBXTSeWgy7zCcTyxHX02uWx3IioSj7c%2BI7mGL2TbD0LORGFnGvWDakOv%2FmGS%2FRl1DI%2BjKv0br1nXZPwgffp7xaNlJF5p6vTC%2BEw9OrrHcwUVh%2BMHwuitg81NRigakIh2PPY%2FAflRPWPQwQx%2FrVTh2i891fnxkT8%2Fipy1h6DDte1g25eQzSQg%2F%2FyuWDFdpthqxGIcu38drNl4Vomhc2zMHQ8zM0GvoXBzwj1d%2BRZEUgvBXUjTsOJg9T1N0MNaHlrKnCvhgfTJEHFyLM7ozsahvE%2FaPlImH0fHoaGWBxqozViIMksJcsX%2FhCPQyNYWF%2BUgsPXAFD1TiEH3VAXO%2FNYOFxTDM3xeABIb9Sj09tEwJxJ0GPfGvTvWgEATgdqo5%2BnSqozyjhgaQlvJa%2Bbk4NPRMYBB3BOv3BkCQe7785K5DFkVK3st7ULs2FrTaN4uzqQGi27R5%2BHg6EC3jDAUReSylnm30qZvtRXrD2YgYEnrY0cDBq8jjVc4729lZZNxvE4VIOFM1UGZ9mTdohZklrfETK5tMnDNN7zqKDvLkynaVIPIkO9O2ZNBlLl1K52wsTIonreg3hNZc41Oe94hkFLltMPW29yWx0pc%2F0kDl51xy6MEua5p3XqhslYyUHuybQlP3RlAmZ8ml%2BJQtj8GD6HRA2wJ9zdUlj8kQ%2FttmXGk%2BAZM6FF9HaQ%2BYiOGtNJAV6gX%2FNJVN9uQ4Vh7Kxvzf%2F4Oheqo7OLcGuhN4Dy2Hj0OPBpypGiirPiYlBi8ymqF1G%2FY6mTgEHLuA%2B7pmMG%2F4As%2FTy1umvAft%2FrAZ2QoamaHwvsmJkz7BSftDyF54FJuHtUSe94AcxMamoLO5KRqyn3nRz9HKyAj12R6F0BcukUaY%2Bp2O6tASqY8uP8xES1d7OAS%2FK96LDUgm%2FhaCn8mhadIbZlWWxz6QtOtw%2BiMOXfr3xRclVb71e8B6dEdopPnD9Uo85EnXsXGlD0y27MDYVu%2FcCWk4AiN00XdQ%2B3xOrgbKqE%2BjmSnMW8fgj%2FU%2FYfMuP9Rt0wwkjUFwNOFr7ZIuvqLUh8n4UeiokYaA81eRIE%2FCjZ9XwcdkM7aNa1XITw3QtbcpJI9uI9jrAnhaHZB9z5e9yS%2Fj8IE7MF5nD6uyxI1WT%2FQ3FeHC%2FnN4mZe6uZEyHwwJTk2jzq0NafIxPtvKR2YsPeSJCtqqiTQ3WzI2GES7ot4ljuKQv3KiKR30qcPQhbRywihae13wUfSWRJn1SVMpUZBByiSdk0rxiRlVfx1yPh2f2JEM2g2lxStsaMzqGyQo5UfFghfET1WVT%2FKMRHrJavzQoiL17AzqZDCUHB6q%2Fq7F7GW%2FweW5vbHcpzWWeLhjoSF7b8gScM%2FHFY7bjyBx7HlcsOv0npElG%2BHH1uLUPRnKtlHOznr7LsS6ce24dmFkCF4%2FENPP6mFtgAumNy9llFC8xsX5A2F%2FXYKuyy%2Fi9KKOylSiNqi1PgVeu8%2FHYLsbkHSzg9u5RehQxeJkwRvx3ZTT%2BGq1D87NaVVMypbcQWB4Jmq3toSVPhd2dZvBaKgNLPWozAH2hb4RunUzLuOrGzq2KG2Mz0FCQgoUtRtBq%2FH7UpYGdHX%2FySqQIzlOwM4h1Q311qehq6ssieSC%2BKIz4CqgDvt7TWrL8erZM5VBOU7mQxa8gfq1aUu9Vvuz86B8MMl0akpHGrknOt9sq7oQ0umphmRgOJvc8k%2FJiiAlnvMcGrdgGy3vb0DtjBfQlTSuSy1Qb31S3imaO3ohbV86gAz1u9OiS1UvjuEfo0nt9MnI9pKyXWi4kYN3OxSJ1BimvXuoUSrRhLY2q0YhgaTwXtVbFEjx2YK13sbYsNMec62NUFfkD7drSWyPOqDe%2BhTJPti62gvGm37BivnWMKorQsCFa0iqYnGkkENOtdBAU7XcUTAgmVcICoqBvGF3WFlUZLlHAo9l5uhu1BXGZXp1w8gdYdx3i6Me2hnqow5lIj29%2BKIhK8oRK49oYN5uWxhp1kHbsdbK3Y2QC%2B54URmpRyFEeMhjtpotH1WtTyEMR%2BjjcqrLisLhFUehsWA3ZnfVRB2DMRhn1QjiEDdciq0UcSX6jt5kQMyWMV%2FrteIMb2HY4ZOdARrqU%2FsR%2B6nIGuwHpmypKJmSBWV%2FCTOKX%2BzOQxa5g4YYmNJK7wKFhBIpz4Xm9p9IR%2F%2FKf45UOv9DZzIwGEjbw4p%2BRwVD4tRkShUzJBWXdAyL5AV5bhhDkwpdO5PoS3vnTaN5O70ovpTpZbn1MWJKFaSSmJGSWFLyD0hfeNCmMTa0l5upKmESyW%2FPfJppu5O8SxMn4dGZOQNoyuG%2FqIC6c7Ooa%2Bt2NHhreMHS7S0V810eYo%2FFZNLWitbdUp1DNUIq3iD60m44rD2KMDaMFYlBcP0jRLVNVE7qa3%2BJL78q%2B0tHq%2FSHBuoZWWOcsRSRoQ%2Ff7YEqUhB2cg2mTtoAn2QJ%2BHfu4EXubcjEI8z9PIJe5igX%2BV1W2eHX00GIK3A9MkTumwE7pzsIdrbD5LVenL0QijREuB3CYbc41E7zw9V7uQ8TqMh54IHTnn%2FC6%2FB2nIgqZme2IvqkkTgwfQlO3A2Cy7KJ%2BNlLynUURJEWAfdDv8GdXwsivyu4nycv%2BwE8XDzx5%2FUj2OEUxRnzo4Dw7kmsnTwZG72SIebfxV2VOCTcdYdr4Et2KilHjPMqrHA4jWB%2BfnEV950KOWIfPYWk1RCMNOMKRGVYlgVGQCcnfaxJjYqM4C00rN8a8s%2FgDBVB%2Fox%2BG21Cs87EE5PDI%2B8bT7iOoshjHWm8%2BTK6UXgXlRHR88h7dHP7dFrnV8ooUQ7kzw7RuO4z6Ww8Qzk8L%2FJ6UpLX5RTrOI6sll6ngvIYEsVE0n3fHTTzp5ucrZKoDN%2FlIufRwX%2Bb0g8u%2FLfrl%2B9bQ1HBpOCRzzncfJqNxEhv%2BN%2BPZ6vE6kerpx122CTgf4cjUPhe%2B2A09DF4uCHCHTbBPbEtvh3cnusojAJpIaF4ZWSJHoXL6traaPMNg0dpJhhtUblTQA39IRjWPgz7Nrkhqe0gDGpfwsqvIhWhoS%2FRxdKUnfrlpza0234D5lEaTMaac7ZKojJ8x5IR4ARvnaVYZ9OSrSI5uMD8dGBHpUinjbT1bDSVf6Bk6%2BXcHQjZYzpibUQWCy6TsMQdiUzyXGxBk38vtGvFksO7Qf896Ey3Eys5Z7DiVPIcycbIlBZfEhb57bdketBScxs69qrQETlPyevoITp1K7GSM1ol%2Be7VZdq8bD%2BFpBXs%2BfQCUglD6Y9D6H5p%2B1qlIQ2k4yeilEV8lo899R64jcLfVvRSSgz3oaCnXLizx27oO4L2hj8j3svKTcslIQ10opNRSnXka29JQ9iJRZ48aWIE%2BQY%2Be3szSgPX04DhDhTxlEcvq%2BPJpdJ8J02kCJ9AevZOXLG%2Bk8cF0hlnH4otRm%2FZUrbaURuNO1jA6KtyyhfzEXLSEU6%2BoQi6L4HJlFHonDenkgbiV9vZmDFjF0LYGp9JjsaTZDniHgrQqEX1rMyK%2BcE45XgMfqGBeCDugUmjO0MlT4Yghzmw%2FX4G9gSrJiDJD58gRc5HdHIjtKiOJ5dK8Z0s0AHzfpyGWTtDlO2SfKfRwgoTpw6EfnF6ucD8vJBlUIYkh94kxZOwyKDHUKYghi5s2kY%2ByjtYSmnC9A9%2BaKAiyDIySJqTTknxwiJLLkymgJ67bqLtectf0jQSiqpRXWm%2BYzJJEONKW7Z6c4YP990nOkJWkHpa0GpQB%2F9o2hw6RQa9HKTHhCLdbAL%2BpbyD66OJTuN3RXc1UE9LC%2FXrNEbT5jpFdstyRM8RKjLD%2BD5cT%2F0m0NGuRnWl%2BS5HhOeh6TCd0IczfLjvav5zRWEUKeDHa0JPrxFnUCcUEPIT0FCvJdRSXQofCZp6aFkBcTUBWYNa8Xmm7BrUFOD%2Fu%2BAK834l71wAAAAASUVORK5CYII%3D%26quot%3B%26gt%3B%22%20style%3D%22rounded%3D1%3BwhiteSpace%3Dwrap%3Bhtml%3D1%3B%22%20vertex%3D%221%22%20parent%3D%221%22%3E%3CmxGeometry%20x%3D%22270%22%20y%3D%22225%22%20width%3D%22205%22%20height%3D%2270%22%20as%3D%22geometry%22%2F%3E%3C%2FmxCell%3E%3C%2Froot%3E%3C%2FmxGraphModel%3E&lt;/span&gt;&lt;img height=&quot;27&quot; width=&quot;407&quot; style=&quot;background-color: initial;&quot; src=&quot;data:image/png;base64,iVBORw0KGgoAAAANSUhEUgAAAZcAAAAbCAYAAACwY8IaAAAAAXNSR0IArs4c6QAAAARnQU1BAACxjwv8YQUAAAAJcEhZcwAADsMAAA7DAcdvqGQAABeHSURBVHhe7Z0HXFNX+8d/GQoy62Cj4Gq1CmoVcYADrKO2VlyogNYqaJfFvlZbq2+16mtbN7XugYgKYhVFUBBxIiqgMlWGbCUhLJmBJOd/AikGSRAiYPv/3C/eD+Tknpvn/u5zzvOcc0+uLEIBAwMDAwNDC8KW/WZgYGBgYGgxmODCwMDAwNDiMMGFgYGBgaHFYYILAwMDA0OLwwQXBgYGBoYWhwkuDAwMDAwtTr2lyOLyIhSWVqPRtcksNtR1O0O7vey1yoiQHf4XblUPh8OYblCTlTK0FSKU8nmo0DSEniZHVsbwxohKwedVQNNQD4ysLQXjq62BqJQPfrkmDPQ10Rqq1gsuZcnXcf7UPngcikAeeQd9x9qgpxar5j0iEqIk9zHux1Zi0v4b2GT3huGgKhqbJjjiSNUceIatx4h/YXSpyriOo9u24Ej4c5BOgzHTzQ3OU4yQed4Xh/aeQHQRF2Z2rvj2K2fYmHFRGH8RJ/b8Ce97Egx2W491C63QuY3HjpKiGJzZfRCX09joYm4C7dIU3H8kgdXi1Vg6yfytB/l/o6ZUVRTF/IW9B0OQzu4CMxMd2pai8EgyFK5r3DHR/K2riozrR7Bz82GEPyfoNMQRrm4u+NgoAxd8DmL/yWgUcrrBznUZlrjYwoxbiISLx7FvlxciJUOwaMN6LLDq3ObTHIyvtgKSIsSe3oNDIWlgdzGDiU4ZUqIeQWLthlXfToK5umy/lkAaXOpReYP8ZN2D9HzXlZwtk5XVUUoiN8wmP4RUyl6/CSKSe+8cOXcnh1TLSv6NVMdvJZN7mpOBX10g5bIyKiIJWfYB6dVzPNkSI392IpK2ZwYZvTSA8MWyojZDTAQRHuSzkWPJEs9YUlT3+WLCO7uEWPUeRX4MEdBXLUUlubN3LfF51Pyr++/RlCIWkDse88joMW7kaGzRS/3EPOK/eDDpa7uSXBa0oKoRe8m6k49UaDPVJGHLJPKemQVZeuGlqqQimCwf1J289+HvJLaerGlk33Qb4h7Ab0GfaCqMr7YGYkEE2eViQ+zdPEncS1Gpq54lX37wLhm7IoS0oKuShnGTpQHNDnS0wmJJ/72CJgbOdsWH3VpiEMWBgdUUTLE2BldW8m+Ea94T3WgKJSwuQrmsjIoHfQOa6UnK8KJELCujVCXg7GV1zKMZgl6bZiwS5F/fiM8W7UPprB3YOt8CunWfz4b+hKmw1cyC/25fPJUz982oRnb0NcQLmn/Af4emFEk+bmx0weK9JZixczvmWei+zO7Z+hg/1RaaWWex1+cpWkrW6qxoXI8TqHA8mkX3lE4/C1Fc9FJVqZ36NH2WlL1AfVnPIFT9MzpC0GvjEQvjq62BJP86Nrm4Yn/pTGzfPh/9X4pKXWACPrXVRNbZ3TiV2mKiNs9vShOikWRgB2vNJERHRSE6OhE5ZfQNOtRKexBdW/bgKYoktfvXUJ6FyCA/+J4ORnRqJniFcm+KCpF0JwbPXjmfqvzHuBXgh9P+YYhOzqPN4RUq+Yi/9QA5tF7p0whc8DuDa4+LqVu+BdoZw0SfQy8eHzyRrEwYj0uhaRBLCsHP+7tQgrzA/QjvtwSOPdp23lic6YdV//FEStd5+MnNEhqy8jo4HdGROltV4n3ESK/n2+ZfoClVFZl+P+D7Iykwnb8GrpYNVAWnU0fosKvw6P5DuY7n7dHOxAR6HNp583iokzXuEsLSxJAU8vFS1jwE7buJfl/MRvc2lpXx1VZAnInTK5fjaHJXuKxZDIuGoqJjJ5oYVT3Cg4ctJ2rTgwvN0q4fPoqoFxKoabVHhrc75jgug08qFY+tBq0O+Qj62QmzP9+Fe1WyOsXh+HXhekR1Ho6xQzRxe/UsrA4poSebjduH18DZZhg+/uoYEqtl+9Mwkuy7HE5feCJduwfNCFJx/KvxmLBgNyJrgpIQaaHbsch+JBy+2Y/z3j/hu18O4fTBDVg8ZTo2hL+oPUxbwjWGsT4b4rxc8Gv8SAJewAlk9x4GXVYVCvj5tVmmMBbHTlZhuttwOv6ToywdCclNDYxlSAnzxq6N/8X6rYcQGFf4+nq0o7i4eRuu5mvC5rP5sFQ0pyouQL5UX0klKirlj1iG9PgUFDfNuJbjTTSlyUz0JX+cD3mAZ5WystdQlhyG4x4bsXbdNhy+EAf5/EcZkrwgbN0ahgItW8ybP0Dh/L84P78m0ZJUVqBW1nJkRQXjnH8IHuQ0SJlaHa6xCfTZYghyebX6SXgIPJGFXsN0waoqAD+/ppTKehS+VTOwaPhLT63IikLwX6cReDsdpbKyRilLwdVjHti05hdsP3gB8U0TVSVfbbZtLcmbtn+KKOsOrsU3pQ9Qof3TPQRBm7EjLB+atvPhMkChp6IgX3osCSorXvVLEbIiriJBhU5AeXCpuo+Di+bhMxfp5ozZkybh+4C8mpVk3Hd6YbRVD7nprA7Q6zMaI/vp1DtgSZgXTpX2g/1gU+ib2+CLtfPRh1RBwjHFiM9XYtbA+kvOhPc9sGz9I4z87y9wHjMYQye54vfdX8Dozja4r7uEfIkauo/7Es4jO4FVmoIc4y+x2/MgPP024RPdNJw9cZ3Kr4wqRB/6HsuWLoV7kzZ3bPgrRVa3EdhdYGTYgQZSmrlIOzNhDI6HdsKcBRbQ5xDk5+XRSycB/8IBRA5ajGmmMoWEzxAT6IElEyZjVUDO652EZh/nlk+H266HEBm/h+7qGfBbOh2LD8WhQraLIsRZ/vAO4YPojMKnEw0UXnBRagKSyghYOoYw0pHuIcSzh4HY5ToBU1YG4Fnz/erNUFFTcXYAVn/uju0nfLD7B0d85PALrjfaqdHRh/9yzFy4CzEiY7zXXR2Zvt9i5qLDiG9MVFov6+wxXOYT6NhOxUQDhariaUISyggL2kZG0CHZuLDqc/xn6wn47voRcyc4YMPVpnQOLQe7sxEMpLLm8Wp8RhjjjdBOczHf0gAckg9BHu0GJXwE7o/EwCUzYFJzWrSzDN2MVVv8ERUThn1fToHztocNZxPkEGf6Y8W0hdgdI4Zxn+5QzzgF92muOBLXqKgq+CqabVuLo2r7/xthIg4uW4KdYbzGV+mq2P6pqPD3CgGf6MB26iQodtWnSHhSBsLSgaExFVUOYeIBLF+yA1d5jVqnEEUfVUu7QViwex/+3LMLO3dsx+YtazCjj1zUa3hDBiz6Iw9HQwvcRC+s+S0QKbTX5/aeBWe7vwNQO2hoqcnVqED4ST+kdLTCsN4vgw63hwOmDe8A/iVfBAtqm6K6enuwuD0x1MakNsBpdENXmj1UFuSjRGlrZaOjuQUGDBjYxG0A+ppoyeo2BgtGRvpgSwTg86qQF3QcmSNcMNTMCHosCc1c+BBTh/M6zcashYNeZrjtDGExyRHDu5LGnaoGCfIDfsOObAfs8dkC9wVOcP7qFxw+6Q6NYxvgnVKbcTZEgtwrVxBLW1uHITT468qK60E7ypvheCpiQcvKBoNrssV2MLSchJkjuzbBNiliiEUiiOpttElJ6LnR3/XLRRCLX9elqqJpGW5dSMf4P/3g7eWDwICNGM47jj9OplHrFCMRBGDz1mw47PfB798twJx5X2Lt0RP4VuMYNnqlyvZSgOQ5robF0HSlAwaPtkH95iiDdga3bqdCxNLCEJshEN28gIwJf8Ln5FGcCD6P9SN4OOHhg3RlxlHE4vq61WhHNYVEgd5iaRf2GthGMKLtREKDC7+KjhKOZ2DEPGuYGeqBJckHny+mfaMnzrAdsWCQzFNFqYgXf4z/7dyAn37ZhYMrBiEj7DoyarJ0BdBrduHXbciZtg/HtyzDfCcXfLHeE97uGvBe7wXlU/oq+Cq3mbbV8E/w1b+pQNzJ80h8pd9siKrtX+qqV3A1pkoqKkbZKvRU6qo3EJEqAkt7CEYOkbOwIhY+5xKkp6gSyoMLDR6c9h2gqaUD3c566GrxEdwW2EG/nez9JqAxbil+/FgbcQe+xqcT5uG3oAJo6deXtw7xMySl0Ezu1f8BgN0R/ft3A6c6E0/TlXkNG+waAUgjDYyLHvZ0FLbwcyxo0rYA04cZyuo2BhfGxjTLos7Fy47D8YvamDG9K7g6BjCgsakij4+0c4cQO3QJJtOGXQeb2kx/uE2afq3Gg5ux6DNrDt6TG+yxDSdgzuh8RNwpkJW8SjUy03JoDs2Feb9+0JaV1kOUhIDAeFSzjTHZ0Q7v1BRSy6ipHE7TlloIL63C+JEjMWqE/PYhNt3MwbllY18pH4nRM3fKaipDBU0l5TCxnwMb2dpOjskE2A/koqyMZmQ1JQ2pfnALce/PgmOfeqJivNNoFNy+IytQQHUW0rOpL3LN8X5/hapSWc/jYlw12CYfw5EmVBUm4zDbVracl2OC8eMGgltWSkc2Nbs3pDIYq+1sGmg3ceNN5Pgvw7hXykeNnAmP+3/PRyuBawJjmrpKBDxkx3kjWGsmHLpyoWNoAC3a0Qn4aQg4GAurJR+jzlW5vWE/oS8No7WIRFx0txkBWk0xVQ9wK7YvZszug5eqsmE40QmjC27jboGyFqqCrzbXNso/wldllEbRkaPudEw0eV0noGr7pzUz05EjddXu/dBPsahIPh+E+Go2jCfPhl1tB0ApRfSxUOjOmARjFW8R1T/bRuHA1GEeJjVnmQPHDA7b/eHzqzMsq+/iwDfT4bw1UvHUFUsNau1ZkBTxwa+7ByOFBQ1N6j70fQ31Znx2m8GGjrEhtEkBknwOImWYC2qmqrmGMNTjgORex86zHTD3s75yja35cDlsiKrrCVODqFoCLldZa2KhvXSUR23sZGBAm0FDim944nSiCJ3HueOLUYozm9ehNvE3XLl7F7fvyW9h+Gm0Kab+ceOV8ru4dWaZrKYyVNCUrYdevbu8dGjRM+QITGE75j2F510DhwM21bSBqqJqiBuL+qz2UKe+CnZnGBgoVBU3j5xGoqgL7L/9EjY6bHTp3UvuOw0iPM8RwGTUGLyrzDj1Cdh0/U4D7S6vGQWTaR64+kr57Ttn4P7BazyMrUOzbB2Qgic4dSAZ1vNG1Mz/cwwN0YVDkHttO/w1nDDvfUXHEeLZdQ+sOqOLBU6D6jr0hnDBZYtQ3SAPrEaVuB04XGVt+E18tam2/UN8VUpxBLxvGMLxU5o4y4oaQ7X2L+021dFO6qqd9KGvWFQc9UuEqIs9ln5lWxfUX9w+hptGjpjSVcXIQlFwpZsyTSOrSEcZErlERDq8lK9bFBaEW+XvwHL2ehwP8cMPo9SQ6HUctxTdaGXrY9BAKnR5HKIeys+aiiEQFIBlaIVhSltiU6hA0LKhGGRhiYFN2gbgk1+jZHUbh2NkAgNOFR4m6GD6jB61zsI2goEeC6KnESgc5YYPOyprVE1BDR98OBRPvfbhbrGsiCJMOo4DN7phjI3COQRKe/To2wsadDxXUVbecHqoLBJ7fveHwMwRGzZMw2sTqDbkTTUtu3caD/ssg+tgJSNlitrgcbBKPYYDd+QWglQm4cS+G+g21kZWoID2PfBebw06WqpAWXnDKYmyyN3Y4p+Hbo4b8ct004adB9X9rwd94O42WOFCgNaDAyNjfXCqHiJBZwamy1YtsWlw0WOJkBZRCFu38WgoqwTFiVdw6W4OhLxArPzsf4hQdudcfTDsrVNxfO8dvFRViCTv/bhlNhZKXVVlX22Gba1Es31VujjK6y56OE+GcZO6BVXbv9RV+6AXDXaSinI0dNUyRP25GecEZpj1v41wMK0VVZJ/Dcfu9sDcySaKAkSTaViXlKK0nIYIMW04ZconmTS6dIEWyUbkzSTabYtRGOOPsCdVIMJCFNbc+JBA9Pwi/ILz6F/0g3QtMcdhMDro6EK3ZgpLgmoh3V86ryl9SZ3LwmUJ7Drn4pKX3E3k8mgEhpZi5JeLYC1bPVITxOpFwApUCqU2SxoJjB1gvzYQIVeu4HKTtlB4fm0pq9s4XBMj6HHUMdDFFXUJFc0SDQy0wTWdiq+cejfsYJqJjv1KrLOLw6ppzli5cTN+/8kNMxaeRdcV6zDr1ZuEcnQc54xPu7Pw+GpozdLtOiqS4fufZfDjzMK2Y+vx4StD9rfNm2gqKbqNo6Gm+O7niY1/n0DXHis22CF+pQPmfb8RW3/9CUumLcK5bivw82xT2U6K6IhxzlNhznqEa6E59TrCimQfrHD3BcdxB45uGN/w8yVFiDhyGSbL/4sJba65dApHH2z1QXB2HV2XpbKlUzjaXJhM/RpzeytSlQ3d9z/C5ys2w/vUWowoCML5SGW3zXVgt3I9xsT/gBlO32PT5t+wxtUBi892w/J1jrJFAopRzVebY1vr0DxflSA/dDcCSX90yryP6KgHSC+qRkXuYzyIy1R6z1jV9k9FhdOn3cF6dBVh9UVFss9yfOfLxswdXlg3XvZ9JokAV3ZfALHohKz70q+WpKG4uhy5j+4jPvNFTV8uPYfcsO34Zv4SbL38rGEiIIOzliL7GyUJgfDcuQen7z1HpZiH9IxKEC0TWHR/p0EU4pqaoX3CRZw9eQRHTwTgIWcMJps+xh1Be6hVaaPHwJ5Qf3QO2w6HIp+thqrMcJwKzITVt6swvWsBIs8cgeep28goKkQpSw/mPd+lQ/Z+GG3dEekBB+AdIYBQEI+gI+fxYtJ6bHDugw4sMXJue2H/kRAkFZagkmOM3u9qI+PMLhw4/wgFxWUgJv1h+a4e1BXchOKqa0JTs+mbRvsmhgRWPiLDCBx+no3ecssny2NDkW27Gl9by325Th5SjriznkgwmgXH4a/5shpLA91GOODjYXogJeXgmA6H0/crMHfwax7LoWYG62FG4IUchGdEMTjVfMRfO40DO32RaemOHZtdMUThMygItd8fR+ONMHPOcBW+9FWFRwEnkTvAGXbdVBhxqqppxWP4e8bj/cUuGKStwAnqwYKG2XB8OmUYupASlLO7Yrjzcix3Gvzax3KomQ2DtTEfoQcOI6KYAxEvHtf/2oc/fDNh8a0HfnW1QqcGx6jAE3q9499fDOcPtOmnN5+qxAD45A6Ak3035dN9jcASROIapmH1nN54KWsZ4i5nY+SapRiq2/iJs7U7o/DGWRRazYOduWILWBpmGO7wCay7EJSUs2E6whnfrXDCB68XVUVfraUptimmLX1VAt6DUITeCMe9yEhE0i3uSTqe8QV4lqeO/naW6KLoFFVt/3TU0224NYx5ITh46DZecEXgx1/DmX0e8MuwxDd//I5F8o/2keQiJvQyboTfq7EtMjIOyRk54AueIU/NAmMtpf1UFe7scsfOi3G4H8/GyLmjFN+XkX1TX0XKCT85kSTxah98UFlcTOQfDCMWCkk1EZPKgiyS9CSDFDTjqTHCwkzy5Elms+q8NcSFJDnpORHJXv5NWcpjkl4he6EIMY94zelLPtma0PqPwBGXkOzYcBISFEzCo1OIQCgrV4qY8I7OJf0/2kYSVTKuhJx2HUNW31TxAqqiqTCVBOzYTS6nF5MX1BdfFOWSBH8fciWn9Z61IS7JInHhweRi8C1yP0VAlMsqJE/P7yB7QtJJsdS24iKSG3+O+IbmNOsxJiWnXIndqpv12llzEBcmk6TnDVQlqY/TlR6zWijnAKXXyM9z1pLwUtnr1qAZvtoytr0FX61D+qiYoWTqzicN6rcsYlKSFUtuBweRkFv3SerrO4BapI8HsppC/nhS3zpxUSp5GBNGfpu/ilxTItsbBhcGlRHxSUKwB1kwpCcZ4ryDXI7Jlns20dtGRPjxwWTX/CHk3YEuxCMkhuQ027hKEntqN7mU2rpNpg5xLgn+fizpa2ZOetZt3cnAz33fzjPH6iEmuRdXEPve8raZk14WC8kpXvOMq4zxI3uDUlu5I5KjOJC4W1uTqUu3Em/fU+TYnn3kQtI/xFNbzLY29tV6tFVwURElwUVK6f1d5MedUTQ1UUy9pyIzMDAwvIqoOBupz4TQNTGDoY4qk3Gtxz/Ztv+/iJAS4onLvD5wmGMDQyWyM8GFgYGBgaHFafxeEAMDAwMDgwowwYWBgYGBocVhggsDAwMDQwsD/B/0BRifUvsE8gAAAABJRU5ErkJggg==&quot;&gt;&lt;br&gt;&lt;/div&gt;" style="rounded=1;whiteSpace=wrap;html=1;" vertex="1" parent="1">
          <mxGeometry x="460" y="170" width="440" height="70" as="geometry" />
        </mxCell>
        <mxCell id="Rq42y3tWJTyJUc1vezib-26" value="ATTENTION LSTM:&lt;div&gt;&lt;img height=&quot;67&quot; width=&quot;282&quot; src=&quot;data:image/png;base64,iVBORw0KGgoAAAANSUhEUgAAARoAAABDCAYAAABDRcoxAAAAAXNSR0IArs4c6QAAAARnQU1BAACxjwv8YQUAAAAJcEhZcwAADsMAAA7DAcdvqGQAAB8aSURBVHhe7Z0HWBRHG8f/3B0oFiyx0RTpCIhYKGossUaMvWBHbIl+aooFjDHWWGI0MUXRYO8aewkqhFioImAFQbp0kA533O58e4XjaMeBYBD39zyjd7PLws6883/feWeLCmEACwsLSz3Ckf7PwsLCUm+wQsPCwlLvfFBCQ9PSDywMAqT4n8D+KxHS7ywfNIIcvH4RAK+r9/CKL62ToyAtDblvMX4+kBwNjeSL/8OUC/b468gstG9s8loUhdtubriRwAGdHI3iXl9g/bKB6FDVeQoT4PnjRpxXnY7vvhwELZ6oMg8P9qzGsccCVDAIbgcMXbEBo9L2wuXQYwjK76CiCqt5u7HYjouwE2vxi3cGaOk+KjxjTNr8DYa2ayCNzk/FY6/b8H8Rg8QcHtp1NYSJlT0+7qGFJtJdPhTo5KvY+OV++MQnIjklEwVCgGeyGOeur4Sl2CZKyQs9ih/cY9D7i68xwayFtLYGiISmsUOlXidf2+oTo37fEZ8iaWVjgR9Ojs/tR4at9CApwmxycaEFMTAYQX4KLZbuUI7iOHJp2TAyfrMPeUNJ60pgfj7i4tdksL4eMegiKUZ9l5GLr/KIZNdikvnodzLDsqtsu6HVHHL4RTYRireLYPbx20IcDLoSq9EbyM0I+W3/IfzX5N4fy8hYu75k4rKtxO3kNeLleZ2c2rmYjLQ0Jf1n7CBeCVW0WWOmKJ6cmmdFDMX9qU8GrH1AqhoiwoQbZM34yWTDjXiml2tG4xca6g3xXNmfGIsa0mg6OZpSfnS9zxST8D8mEivrz8mlNNF5FZOIs9+Sxd+4k6BcyR5lySMB2xyI9Yit5GGBtKo8Rb5kfT99mZCYzjxO0ss0WTY562Qs227i8DMJL2d1wui9ZHI3B7L7ccNQ9aLIi+TbUVbEzH4+2R+QWk74KJLptYYMMdAj5iM2E58saXVDpTiSXNu1lZwOrqu2zSJ/LTCX9KdeL/LNzTxpfeXww9zIjN4jyAavNKnzUY5Gn6PJ9dmFHy4kgBJ9EcYiMrJYXN8oyPLAH+4hUBswTjo14cFw8mb8vtMZPSuJbvMD9uD7g3Ho4zwP1urSyvKo6kO/M1f6hYl4szKQUWaqxEHTJqWTDJKfg5wyc3cBnp69jMQhn2OO+X8/GckJdsMX01fibJI5vt7/Cxb0aY/SsxPBQZsBzphowUNR2FFsP/QczAyizhG8uoHLfjnSb28BlQCf04fhGVFHdlwUjIehhZLPzXuir21zyecqUDNxgut0VZx1WY+riconbRq30OQH4PfN55FQ0h50GqIis9E4csI0Eq+egVdGM/QeZAfF5sFAxeH8zycQ2Wwgxo5sX3XHc1pBR6c1VKRf6bRkJMuNPDrxKi755Em/MYdNT0GyWMUl0OkecL/AxcQFw9HmP7YuYew5rP58B+6mamCI6w44WzSTbikHVwemxm2YcxYg7O+bCKtjpaFe/431X+xCCN3wskCCZz4ITJeMCDVLe9i1En9UgBrMpjmiT+7f2LnbE1nS2upoxELDR+i+LfAyX4gJXUp8mBCxERFoFDENnQyvvwNRwDVFr14tpZVVIwg9gZMB+WjSoz9sFebyeNDR7STz+vSbFKQWSb+I2vToUUS01YUsICpMRXJ6idIIEXnqIIKs5mKmuZq07j+iMBi/LV2P2yk0WtgtwcoJ2gqNXU1VVSyuwugwvJSd79tCId1/LxZPXY7z6Zawt2poQiNEzH1fxIu7jwdj+37okBeBf07tw549B3ElKKXS6I7TYRAGduci6YobzkbKeRkFNFqhETw/gC1XdPG/VTPQXVc2bJAWGYms9zikybv3M5YsWIBF85dgfyAzIlQScOP7Rcz3hXA98aKKsF+AJzdvI0bIg243M7RS2OtcaOnKrcBQqUiShjR02k24X2mF6V8Oh2ZJkxJGaJKkxpbjjYNnCjBm4ehar+wJsxPw9P51XLzsiaBXGYy01QYhwg9ugvvjAsbCO2KE8yTol50vlUOIjAxppEvnIkduLkinBuHC3u1Yt3wepo36BLP/CC/TxnT6dWyYMh5TljPRotyYo9MeYN/S8Rg9cwc8EwQg9HMcX74QS3/3q+U51QNUEu77vJScD1cXVu3+xZKRDljguh17dm3C11PHYPHxVxVtitMeVla64PJDcfHis4rbK6FxCo0wAkc3nUaLBavg0FEDXfQ6yE6UiovAq9qGNEI+8vJykJtT25KHQmV6RQFNu0/BSldXfNm/FbIFgLqdMzaudYXLmjVY6mDA+KVKoGLh5xfP+FcOtLvoVb6PHKq6umgv0+Y0qZAwg/fEITy1mwtHe53SpXMqHcliIaIQe94d94ycMMu6Fp5bkIBbW6djsM3HGOfkgi3fLYbjEDt8PHo1zr7Il+6kJNl3sP9wCESZB67+ODgO1JDUV4UwEi+jpMOf2xIazUuHBaedJUZM7AfVZ3cRGMaHnpV8+9FIvnEa5wNCEa/WCdpyYsZpYQKHb3ZhyzR9RrrV0GveNqxn+mjVlO4NZhmdzriH+48ZIxLB48PnYhAsVv2BnXMsJBGrMBXe+44gsIIyqqGrPiM0jE1Ee3shUgmbboRCQyHm5GYcoWbCxbEz0xiqTKPolE4FUqMQWcuQhu/pisGWVrDuXtvSE5+fSpMerXbwWmlBjzmfouR4FDEmb2gzCKb6+sw56kGrdRXTlaIwvIhhrEFFA20/qt7MebqdoVliGfQbpKQUgc72hPt5gvHzhqA18zdotizJ4vCRmpQGqjAQR46nYsTCcdCqqVXR6fBaPxtfninE0C0X8OBJKB4+foKAG7swoYU31s9ejtMxyoXoosGfcfsCPNNEGWwuugwejupmcXRqCEJjJaOF18UERvIJL44amrfmgfBpqLToARtLufajonHtUgAjaC3Qw75X6XRShHo76HZWR0JEAiieMfoNt4Q+00e67avIE/0H5PrcQ3DJNJGJ/MZ9vxtLxw3FmPljYaEqqaZTYhBdyZV66jra+IjpZ2FkMEKUGE+NTmiohL+wbW8mxq+ZC2Ox6+GgjV4XtC05U8a7R9YyY88zn4Jvt23FllqXLXC2q8a7KgMz+J8+ZQyY0wGW1iLPohg6MwUZIoNSaQr1qlab5OBo6ECntSwdjPSk14g87Q5/CydMN2MalacNrY4lv5Uw2xORePlP3NacBScbJX5BOQQh7tjxF4Vxuw7iu0nW6Kgu6iw1tOn2GVwOHcAiLV/8svsWsiW7VwMfQfcfQhwDcTrBfpA5cyRF0Mi89y8ei702F9r9BsCkXMhHxQbiURINVfM+ZVbzBI/P46IoImhiDjvbSvo1NwB+TwXg6vSBXdfq4sh3TQH87wYiT7yiyIHuhK8wx0LSd4QqhrBkpZGnDvWmFWWC2/ojtBZVCxMQLRVpRTQuoaFTcGPrLjy2GA978hwhwYzaMuVZobqkUcT7iFae3kjm4zWEq2OHcVMdMdWxtmUyBhrVQeAseIInLxmxVDdHD3kPWwV0QT4KRYajwgGHWyIgClDVhY4sCUMjLfoaDp7KhsMCB0nuhafFCE1Jg1JIT7iLI0deYeCCSZBbGVcSZkrm9Q/ijSfCaWCbigap3h2zZ/ZF4b07CFAmSUsl4lVMruTq5qZm6F7dEjudjNs3AyXCpGqGsZN6lhMmRmh9AxAh5MGgj03plJHOwC338+JpA8/QFnay9iiFH+SH0DwVtO5lX21UVQofD7aMxdBBgzGksjLCBTcyBPDbMbry7aIydAWuvJEeriqKgnDX942knXimGDvDnonLJAijopEgDSB5Bmbo1lTyWR4V9aYQV9M5yM4qUaWqqdg67y1MyHzrR/x4D2gZewYbV7vAVVq+3f0P0mRnSiE2IvK9XnkSRj9BGNO5PKMesFLianCVZs0kRkEoUDJXpQCuJjprlQxQGql/H4JXl9lyuRd1aGqWikLBvcO42MIRcz9W4o+pACNUqZngaOqUyXHI00xHC63z05GuTKqG8MGXph24HbtAr5qZijDiPM48EC3Xc9Bx1BeYYVo+8shDoF8oBJz26GFTmgMreHQUF54w0ylRFGRjj4oBiwBPfR8igzSHtX1vKD9h4qHzwOmYM9ep8jJ7JEybifaZWfl2UZkzHKaViIM8gmd34Zcqcbc881EYLQvjBAgLDEGmRIFgOGgYDCoJxlTU1KAq8lmM81JRwnc1HqHJ/he7t3rBYOVZ3LjlgZvy5aY75pqXtBbjoaIi8aZWaRrRQBVCWOvC/Lz0SG9D7pNniBYyA8PSGjpKRBDcNu3RRqQRpAD5pZfAKEAV2rodZVMyUtwOI+ePg7bMWnjQ0upYajzFrfDJfEcY1DiaEcGFZqf2oOOjIUojVYRGdlQM3mh0RKdqLxZi4LRFm1YSy1dproGWiiycTsedvSfxnPE6XM1RcFk9Upx3KAM/FH7B+SAtrNCnJHoseoLjfxVCT6cQtEpr9LS3rDg9o+LhHxgHSs0cNrbVXpwiBxe6/adi1pw5mF1ZmTEI+szUUsvWsfLtojJrOIwVzmCFiLrrK41aeDAaOBh6JX0nDIenV7TYTlU0PsbMaWYycZWHMFFygUiMVFpAQ9reimgkQpMH358345rGbKyYIkoAl0PsoUtbnoqp3coT32Ml7IyMYGpY22IG52NvlwwWhdYvHocx/zZDt57myq1gNDWFmR5jLiQfmW+kV4EqhPGYnbVk7di01yw49ZUf5Vx00unEyJEENcsZmD+kJoNJHsZrjhgGo6hzcLuWyMhKObIDcOCIPzQ++RR9qvHSYhihsTCXJP9FVy0ruuM41/dX7LyWArqJMWb9uAkOlWSxhS/9EZxGQ83cBr3FlysVIOTPYygYboasF8xcrrk17PpUjFfoDD8Ehgkl0ypZZr2BQL3GvQcly9pa6NPXUCYmefdP43IEs0WlJawXfYPxpd6lDFRunkRoeDro2qUyKSpLoxCa/MBfsfmUAKO/dkblU3IeOnZqJxs4dHokwqRhY03gdZuAlRvWY12tyzrMtKnN9EIOKglPnzODg2eEHlbKuHgGXlfY2Wgz508hKTaGCY6rg4OWOtqSK3s5HfHpvKkVrkNR09SE+K4HlXYYNn86jKq3tSrhmTvD1bk9/l0zC8v/+Bshcdng5ycjzMsdK6YuxIkCJtpYPlCWQ1CMGiw/c4ARE2JQr4MRVJJsKIcw5hxWf3MCsU3MMP2Xg3Dt37qSwcBMG4OCmOiRB/1eovwMjbQ7P+E4mQbnZk8Qmk3QpHt/2Gu8ge+Bg3ggl63O832AED4HnXrZwUAlDjePXEdcXYSzdQCd6QPfZxJPq9LcEj0tpPEY/wWO7LmI1zQPnUasxY5FVTuy4oQEpDLnw9OzgLksASqBznqOWydP4lpQYqmtSe95em8RJnsQ18FGxMD8c3K5yvvBMsnVxT2ld6iKbh6zJPNPJdXoprAGQ+4V8j9LPWI8aDN5yJfWKQE/YCMZoq9Hus08TpS5r1QY8RuZYKBHTB12k2eV3KorjNtPpoi2j9xJHtfg76gSKp0EuC0lY6yZvmT6SNxX+pZkiNMOciuupr8gm/hsGUUsu+iT/kuvkNdl7qIsJil++8niQaak++BFxM1X0c2BRcR7tS0x6mJMpu8LJg9PryWLvjpJXvIp8vqgIzHtYkCGbPiHBB10JVuuvpY7ThHxWmnDnIMpWXDqJfnnl83kxLM6ugmyyJussTEhC85WetesUhTd+ob00ZPeFDv2NxIpap/iJOK5diQx1zMjQ5edIS8LJftWTjF5scuBmDDnP/yHR6RM71CvySknS0n/GfQnLh6Z4nZ5ryMa/v0f8NmwJTgbxahz3h1snjQHa89IQ0IxNBKvb4Iz4+Fcb2SWPmeF5OKf9eMxYe5WeKTUKlnznyEIf4KwfA7a2/VHiSNSBrWeszHLpjmKQ+/DV4l1Yq5WZ2g2a4vBzjNgWkm0wm2nhU7N2mDQ/Fk1WFFRAOcj9Fm4B5cfhsLv9nkcPXMdd0ODcefQSgzTrekv0IC9y2G4r5+EDr4umDz5K2z/7QAO7NqAFU5jMGX1HaiP240L1/ZhoV07BWE9F+06tGW2C+C/fTa+C+qJ1VuniaMlNQ0NqKtQiDmxFm6UI5aP1pI7ThFycgoZeyvC3Z/WIshqIRy7KTXJfSeoWo/HrEGd0UyFifoir2HXutX4YtxEfPdQF3N+uYRLv0yBkaJpKp2J4JAoCNW64bNx5fJThEJRUbFkrAkTcO2sJ3LF9SzvERRJOuRIzPR6k29u1tyj5QduIw7GFsTpWEL10Zwwnvx76m/Ge0u/l0e6Pbwuopl6hMqKJoG3L5LjB/4kx85eI94PY0i2EhGdjOJU8vzBXRIYkVnuGSy5JP5JKHmZUvnzNqjceBLs+4jEZNXx03jqIKKRICQ5cU+Jn+dNcsPjPnkUkVrlc2gqkHmefG6hT+yWXSv3CBEJxSmhxNPDlzw7t5T0dTxEkph9WKF5r8gl1//Xg5j0XUPuVfU8GYXkk6CfxpIeA9YQ74b+3BWWyqkzoaktQhJ1YCqx6r2AnItTJKLFJHzPJDJp9zOxQL/XU6fGjxDJDz3gHS694S/PB15+xegxxxn2Nb8Al6EZei7/A1ttH2HHFg+8Z7NGFhFN+uHbW37YNfYtFxVqCZ3mgd+OpeHTjRsxQXazcnloZAX9gV1BfbFybjfJipZEfVgaJIV3yKpeXYnJ8B3kcTHjIfZNIX0n/EaeKEzUKYEwhdz/aSFZtM2LJNX0mYwsHy75j8n+uRPIN+ciyyaA5aGSiNdva8nanZfJy3xpHQP7ArmGDJ2G2+tmwcVXH7McWiI8Rhezv1sM+zp5uroQqQFncSXdFvNHGUjrWFgqhx95Db/vf4iPpi7HrF6V3CoiQwB+ERdNmpaNdliheQ8QZCUinfoInT5qoqCDWVjqj/zk1xC010abqmZL1cAKDQsLS73DOkgWFpZ6hxUaFhaWeocVGhYWlnqHFRoWFpZ6hxUaFhaWeocVGhYWlnqHFRoWFpZ6hxUaFhaWeocVGhYWlnqHFRoWFpZ65wMVGgHCj32J2Yt+VeppcywsLG/Hhyk0/Ec4s/8qfHweIbaQfSgLC0t980EKjeCZNx4kqqDzuPn4rBM7e2RhqW8+wFEmRNS/9xGrbgenBXZQ8oUl7wG05Cl8LCwNkHfymAh+aii8b/vhRUwicnjtoWdoAiv7AbCSvXb1HUJFwW3yKJwxd8fVTf0ah9DQybi0ZBIu2V/EwdntG6z3aFB2wPJOqVebFCTeg9vyMRg6bj084gg69RiIAZZtkeG5E06fDMacH72QWOlrUOsPOvlf3IvthTmNJpqhkf73duz0SEJ0A32neEO0A5Z3jCiiqXuKyKuLrmRMd2PSf54bCUwt97R0KpN4uw4mJl1MyajND8i7eyA/RdJOzSOj1t4jVb5r7j2DenOHuPQzEL8MzGzaEaVeDvfuaKh2wPKuqYeIJgchbgsxa8UZJJmvwL49C9G7fbnn/3HaoP+8STDnFSH8yFYceVYf7kyAqBuX4F9m+ToXPg9VMXWBfSOJZnLg+9MWXJS+9lUYV7t3itcPDdkOWN41dSw0QsSeXYkl2+8iVWMIVv84D+YV338uhqttCuM2KowdhMHj5gu5t0vWBRQSb67Dkl3BoOXfuJfnjyjtWZjYuZYPPm1g5Af8hh/Ox8uSwHRqFCKzG0JKuIHbAcs7p06FpjD4V3y5/hZS6BawXbIa47QVHF5FDTxVxsAY04oJC0eRpPbtodIQsPdzTP/yHDIs+qK7fJ5RtSdmOjeS3ExRCPZv9kS3RRMh001hLCIj/vuQpsHbAcs7p+6ERhiGw5sO4EkBc9COI+E02QAK4wZhBjKk3pfOy0GOzBHTSAs6D7fta/G181R8Nngm9oXL+zkaGde/x7Txk/DV8UjGZ5VAI/3BXiwfNwpztt9BAp+Afn4MXy9Ygr1+fMkuTdqhXas6DuL+EwR4cWATrukuw4oZ3aFb8m5sOhWvIrNkEU7NECIn/gkeXL+Aq55BiMqQtllNeR/sgOWdU2ejLue2G44GFzKfuOg6bjoGaEjqq0IYGY5oab9zW2ighewv4eAjy08xvp8ant8NQDhfD9315N4yTyfj5qlzCAyJg5qmtpwRc9DcZDS+2rUVjgZMrVpvzN22AS7fumByXbkzIR95zGDIzaltyUNhHcwNhBFHsOVMS8xbPRodNbpCT/aeJwpxtVh5EsTfwvZpA2D38RjmmJuwbvFkDLfti3GrziAsX7qTknwQdsBSY+pGaOgM3LngiTTRFTncLhg83Bxqki1VQCM1JBRx4kHHQ2dTY8hP4TlqzdGaR4NPq6B5D1tYytkHFX0FVwIZQ25hDbteZd8Lq95OF52bxSMigQLPuB+GdTdAVz1dtKsiP1BT+J6uGGxpBevutS098fmpNOnRagkVg9ObDoOauQZTRHMmVUZoZK8mZaKAV5HIqkFIQ6d7YuPspThXOAybL/gh+HEwgp8E4equiWjuvQ5zl51CTGm4oJgPxA5Yak7dCA3/IR48zBN/5HTqiwEWis1LZJD3vUMhdmRcHfQdYCp5P68MCrGBj5BEq8LcppdcTkWAJ+cu4DHzg2oWdrCtxFvmBvjhKZ8LbRt7yDvAuoBnPgXfbtuKLbUuW+BsV42LVwiF1+d/gFvmBLg4GUvajNMGep3byjqSio1ApNIhjQChf27DBWo8fjz0PSb07Ah10YHU2sBszBr8+ecX0PTdjT23lFyy+UDsgKUWSJe53wph5O9kgoGe+FoOy3nnyBtpfVVQr4+TueaS/U0ddpPn5d//TCWTYzNMiIHBp2T309KNVPoVsqxXV+bnDMmY3S9IxddGFxGvlTbEUK83WXFL7sW/jQQq+TJZamNDFv3pQ4IfPZKWIPL39yOJCdOWovY0MHQkh5OUvJimOJT8NNyEjP0lnJS7wkVKJjk/z5L0+cpD+l0xrB2wVEWdRDSkiM/4GBFcdNDTKxP+VkSIyPNn4CtyfJyO+HTxTJiU9zh5AfB/LACnvTX6GJZsLEDwkfN4yoTR4Gqjt71+Oe/HIHgK/4cZIM2tYd+7kcXJdDru7NiBe2iJ2DPr4braRVpc8fM/qaWhKRWHSGVDGmE60jI50NSRz3HI0wzaWq2Qn67cdI+1A5aqqBOh4XzUBq1EK5RQQQsNDYUHpdNvw+3EMxQzxqjpsAYrRrarsD8/1A8heQTNrWxk83L+k6O4WNgV2oU0VFr3gp1lxbCcivNDYBwFNXNb2LSSVtYpFCihEMJaF+bnpUeqKdneu7DdywArznng5q2y5drBeehWMtroNERHvoFSaRqeJjp2oBEfFcMM+0qgsxEd+wYanTSlFYr5cOyApabUjdC0tUA3HZFPJMjLyVFg5Dnw2/MjrqfQaGI8G9s2jYZWhb9AiAj/R0ij1WBu2xstRFUFwXA/Vohh3bIQVgQ0t7ZHRUdFI8MvAOFCHgxs7VEfT3/ge6yEnZERTA1rW8zgfKwWyeA8X+zZchUt56zCpEouNuRqdoaWLB9KIVbZlSeeEYYPNUL0ub24kVix13L83XDUrxUGj7SR1ijmQ7EDlppTN92g1h2jHYyhxhh54qOHeF2p2xYi5uwqrDoRgyZmM7D70Lfo17qSX0+nIigoCkKeAXr26QgO46E9fzoGMm0e1J+EIJs0geXHfaHxxgfu7vcZky0hD/4PgsHndEIvOwOoxN3A0etxtY4gKoPXbQJWbliPdbUu6zDTRjxkakA+Hu7ZiDP8z/CVsznkFl5K4XVEx3alK0/pEWHMAJV+VQgP3Zy/hVN7b6ydtRT7bgYjLpuP/OQX8P7za0xbdByFo1zxv0FK/s3vlR3QyHrmgdMnr+JRomTCx1KPSHM1b0+WD9k6qhsx6NqXLL+cUDa5WJxC/N0+J0NMzMnQRXuJX5qCZGWRN1ljo08MjKaS/cGB5MzaBWTFyZeET70mhx2NiIH+YLLJK4gcdtlErr2WO06hJ3Hp05UYmMwjp196kV83HyfPi6Tb3luEJNljNRlqqEesFl2q+kbQzCtkqbUoOSpJrBpaOpPTyiaEGah0f3JgqQPpw/wegy6S4xhbDCbOOzxIHF+6k7K8J3ZAvT5JnC0l52rSbxW5lal8e7HUnDq9e5tK8SeHV44jtma2ZPLyreR3t31k9/dfkbmf9iefTP6K7LkRSapdAyh+SnZ/aig2ACOLEWT1hVdEbCdUKvlrYXdiyNR36zefuIeWG3ZZF8kXlqKBYkhsJ+8g/6a+74ZTRO5vHkGspas4Bga9iMPsNeRsuNwaC5VArm+cQ8bamYnbRbyftJjbfkact9wkyTVoBqoglUQ89CH+zxJIbuXLUErxPtiBMM6dzDApaS8zsvAce+94fVIPD76ikRMThMCQcMSmE7TS1EVXi57o0UVxclAeYepzBIbno4OFNQzayK0p5CXgWVQh2hsZoUPZa7QYaOTFh+JZWluYWXWBRuXLKCzvjIZuB0KkPf4XIfmayD3ljAs9L+GoU6c6yiWwlOedPGGPhaXBInyJ3x1dQG08i2WypTuWuoYVcJYPFzoLQX/sRFDf1XBiRaZeYSMalg8SOtkLbr97oqi3ExaNNarm4kKWt4UVGpYPEwEffG4TNGFzee8EVmhYWFjqHTZHw8LCUu+wQsPCwlLPAP8HsiD1VmEHesUAAAAASUVORK5CYII=&quot;&gt;&lt;br&gt;&lt;/div&gt;" style="rounded=1;whiteSpace=wrap;html=1;" vertex="1" parent="1">
          <mxGeometry x="520" y="260.01" width="320" height="110" as="geometry" />
        </mxCell>
        <mxCell id="Rq42y3tWJTyJUc1vezib-30" value="" style="shape=image;verticalLabelPosition=bottom;labelBackgroundColor=default;verticalAlign=top;aspect=fixed;imageAspect=0;image=data:image/png,iVBORw0KGgoAAAANSUhEUgAAAWkAAABTCAYAAABd7fYxAAAAAXNSR0IArs4c6QAAAARnQU1BAACxjwv8YQUAAAAJcEhZcwAADsMAAA7DAcdvqGQAABX9SURBVHhe7Z0JWJTV98e/LLK6ZG6A5gKa4pZrSiLivuBuhWiKmIpmmlnPP+0pW/TnUmYuuC8progimOJSqakBiluY4ZKCIZCCCriAoL7/OZc74wADDMg2ej49J+57z33fGWbk+9733nPPNXpwXVHAMC8AqyNuIPy/FFFua1MRY5vXEmWGMWSM5U+GMXjc7KuKn0Yq6+dQTZQZxtBhkWZeGOzKW6BVjQpoZ1sJNtbmspZhDJsSH+7IyMhAxN/ncPrPcPwbex3xN+OE3Uq8ibRHaXjy5AkU1X8MUxisq9fFk4xHSLsbL2sYpmAYqf4zNjaGWTkzVK1SDbbV7WBT3Ra17F5Dy2at0fqNtrCytJKti59iF+nklGQcOvYLTp4NE3burzNIS0tFhQoVYW9vDzs7O9ja2cLGxgYWFhYwNTWVZzIMw5QO1FlMT09HQkIC4mLjEBcXh+joaCQmJsDExBRNGzXDm62c8GbL9ujs3A22NWzlmUVPsYn0+cgIrPJdim2Bm5GamorGjRujvVN7tG/fHk5OTnB0dISREY0eMgzDGAYk1GFhYQgNDUVYaBjOnj0LRSWh/XoOxHjPD9GxfSfZsugoUpGmoYyg/QFYscEHoeHHUb9+A3ww8QN4enqicuXKshXDMMyLAXVA/f394bPEB6dOhaNxw6bwHjkRHoNHwNrKWrZ6PopEpJOSk+Cz9kes27IKtxJvoW/fvpj44UR0796de8sMw7wUhIeHC7H28/ODhbkF3nt7FKZ4f4qats8XCvrcIh386x5M/twbjzIeYczYMZgwYQLq1KkjvQzDMC8XiYmJWLNmDZYtXYaU5BTM/XIBPN1HS2/BKbRIU+/5/76Zgs07N2DoUA8s8VmCKlWqSC/DMMzLDQ2FTJ82HYsXL0avLn3gM3cVbGvYSa/+FCpOev+hYLTp3gQHj+7DzoAAbNm6hQWaYRhGC0tLSyxctBBHfj+CS1GRKs1sii07N0qv/hRIpFPupcD7Ey8M8XKDi6sL/o78G4MGDZJehmEYJjsuLi6IOB8Bj2EeGDvVE+5jB4m5O33Re7jjbvJd9BveHTHx/2L5iuUYMmSI9DAMwzD6cOjQIXiN8oK5qQX2+x3Wa/hDL5G+k3QHfYd1Q2JSAg4fOYz69etLD8MwDFMQ4uPj0dm1M55mKHoJdb7DHbfv3oabR1fcTk4UYyss0AzDMIXH1tZWdHaNyxmhl3tnkRYjL/IU6cQ7iegztAvu3rsjBNrBwUF6GIZhmMJSEKHOVaQTbiegj0cXpDxMFgJNeTYYhmGYokFfodY5Jv306VN0f8cF8QmxQqB5cQrDMEzxoB6jtjKzxu9BJ3IkmdPZk164cj5OnTuJXYG7WKAZhmGKEepRk9ZGXvkb3/nMlrXPyCHSFy79hZkLZmDGVzPQokULWcswDMMUF5QVdOasmZi3ZBb+vHBO1maSZbiDsti5DmyPcpamCAkNgYmJifQwDMMwxQkNM3d07oh7d+/j+J5TKFeunKjP0pMmFb/4TyR8N/qyQDMMw5QgtBvM+g3rcfX6P5iz6FtZqyXSZyJOifGQ2XNmo2HDhrKWYRiGKSkaNGiAOXPnYP6yuUKTCc1wh3O/tqjwirUICeEc0AzDMKUD7fRC0R73kx/i2O6TmSIddioEXYd0wLHjx9GhQwfZlGEYhikNjh07hk4uLji8KzRTpEdOHIprsVdw+sxp2YRhGIYpTVq80QKO9k1hTKtcAvftxKTJk6SLYRiGKW1oC8KAvf4wmjb5S2X15uWIuREDCwsL6WYYhmFKk4cPH6KmXU2YXL566esx48agZ8+e0sUwDMOUNhQnfevWLRiZmJgqUdFRqFXr+Xa0ZcoW6enp4gtOSUkR8Zf16tWDubm59DIMYwhcvXoVRv37D1ACgwJlFWPonD59GmvXrsXWrVuRnJQEE1NTPHn8GKaqu3Lz5s0xcuRIjB49GuXLl5dnMIVl1apVOHDgAB6rPt/cqFChAmbPno3atWvLGiA4OFh8P3QDzU7FihWxcuVKWFlZyRrmpWfhokXKU0VhM3A7e+6c0qJlS4p5V9q0bav4bd+uPExNFb7UtDRl988/K66dOwt/terVxXH2a7AV3BISE5UVK1cqVatVE5+ttvksXarzHLVN//xzTdt27dsrx44f19mO7eU2nAwP1+lgMxzbFRioWFlbiz/27+fP19lGbTt27lRUvWvRdsZXX+lsU5SW8fix8vOePTp9ZcnoM9RVr69FX7+u1KxVSyO6ZDdiY3W2VZv/jh2i3Tvvvqs8Sk/X2YaNDfyPw7Bt3/79GtH1Hj9eZ5vs9sOCBRohmffddzrbFJXtDAhQxo4bp9NXVuzfmBjxFKLLVxCLOH9eqVipkuazHT9hgs52ZPfu31caOToqzh07skCz5WlG9D/VPyjGAKGJwWbNmiFB9bNCxYqIjo5G5cqVpTd3njx5gtdffx1R167B2MQEJ0+eRKtWraS36KDXadu2rTAaZy2rjB8/HiEhIYiIiJA1hWfbtm0Y5uGReWBkhMOHD6NTp06Zx1q8++674jVpDqFGjRqylmFyojPpP2MYfPbZZ0KgCS8vL70EmqAMhx999JEoP1UJ6bhx40S5qJk7dy7OnT0rj8omv/32m5gALCqGDh0Kj2HDMg9U/R+apH3w4EHmseT7779HUFAQdu7cyQLN5AuLtIGSkJAgIgTUdOvWTZb0o2vXrrIEnFH15kJDQ+VR0bB8+XJ8+eWX8ihvkpKSkJycLI+AR48eITIyEufPnxehhMXF8ePHMXjwYCGmRYmPjw9s7TK36aenFbqZqqGbwvTp07Fo0SK0a9dO1jJMHmQf/2AzDKPIAdXXJ8zYxES5m5Sks11u9uTpU6Xyq69qrqEeP12+YoUyeMgQpXWbNhoL3rcvy7leo0crnVxdNf6u3bppfBTt4DlqlOa6ZBT5oG7bwdlZ0/b3o0eVYcOHK2bm5sqatWtF3TY/P8XG1lZzLpVp3Pzxkyea8w4cPKiMGDlSRLGorzt33jyNn2z2nDlKz169NH4yGnsmH13rm2+/VcqZmWlex8LSMkvbS5cvZ7leQY0+M/W1YWSk/HbokBIVHa1UqVpVfD66zmFj02Us0gZqJJRqEWjYqJHONvlZ7z59NNdo++abmnoS8FFeXhqf78aNWc4ji4uPV2rY2Aj/q1WqaOpv3rqlBAYFCVOf36NnT00dRXoE7d6ttGzVSuMnI5HWntDMbromH+mGovZP+OCDHH4KQXTp1EnT5vKVK6KeIk7U7+f1hg2Fr3adOpo6sqTk5BzXK6iN8/bWvHadunXF70wTlOrQSDY2fYxF2kCNepFqAaCyrjb52XsjRmiuQSF82r6Dv/yi8ekSabI+bm7Cry3S2qY+P7vAUmQD3Qi044Qnf/SRUrdePWXrtm1C6M+cPav07ddP4yej2G/t66Tcu6fx6RJpspmzZmnaqEVa2yg+mXxNmzXL4Xteo9/T3sFB8/qWVlbKtagonW2Ly+hzpptO4u3bOv1sZd94TNpA0R7DtbS0lKWCoZ1Q6+GDByIaQ416f7W8KOwyc2tra7GxRPfu3WUNsHfvXvz+++9wd3dHtWrVxCbIgYGBUPX2ZQtg9erVspRJcb7HooB+z/Xr18PIOPPPLPXhQ1y4cEGU9UX1NypLOaHvK6/VjjQxSVE7AwcMQGJioqxlDA0WaQNFe/ecvP5Q88LU1FSWMqEcHyWJtshOmzYNr732mjzKhN7PkiVL5BFEONvt27flkWFQtWrVLDfRsWPH4u7du/Iof2bNmiVLOdm9ezd8fX3lUU66dOmCMWPGyCPGUGGRNlCqV68uS6oeWmqqLBWMtLQ0WVJdr0aNUt02LbfXtre3RyNHR1GmHCQUkWEoUG6OgQMHisib12Tujv/i4zFpkn652zdu3IhTpzL3uSsMFJKpnTOEMUxYpA2Uxo0by1LmopbCcP/+fVkCmjZtKktlD+00utrDPGUZGqYYMWKEuPls2rQJa9askR5gy+bNYignL5YuXSp63devXxcLgQobIlnST0dM0cPfoIGiHWMbFxuLqKgoeaQ/YWFhsgR07NhRlsoe2ml0sw/RlFVmzpwphmd27dolMg7S+Pv7WkMPtMoxr6Eb+n7pxlmpUiW0bt2aUwm/xLBIGyhDhgyBhdZY55EjR2RJPy5duoQbMTGZB6renqenZ2a5DKI9+ffKK6/IUtmFJkG/+eYb/PTTT2jUqJGsBX744QfUkuPut27exMSJE0VZF23atBFpTun3pTKN11PK0969e2uMbgQLFy7MUqe9cIZ5MWCRNlAo7zDlhlZDwlAQfv31V1nKFPy6devKo0wK8picVwRCUaBeVk03JRcXF1EmCvooX9zvk7hy5QqGDx+OqVOnis9VG/rOtCNUtvv5wd/fXx7lz+eff459+/ZpjFZ0TpkyJUvdvHnzZGvmRYFF2oCZM2cOqskJRHqsvnjxoijnx9OnT7FlyxZRrqTqqS1evFiUtTEzM5OlzF1e8qIoxE87/C876mGZfv36ZdmsQESHyAlHfZaP0+9dnNy7dw+DBg1Cy5YtRd4SXdD4utfo0fIImDBhAuLi4uQRw+SERdqAodl7igCgXVcUlQB9+OGHegkRCUhoSIjYtYXOt7W1lZ5naEePnDlzRpaeQRNZhw4dEmWagNQl1PS+CO0JSorXjY+Pl0fPuKl6/NdFRkaGyHdBvPfee+KnNur3SdnkskOvQ0MOanTthKIOA9R+jxTSSLlDCgKd4+HhIX4/yoRHSaxyY8GCBbCRn/md27dFcqyS6OUzhgmLtIHTo0cPbN++HZZWVjikEjNvb+9ce5XUW6UxzC+++AJW1tbwUz1u9+3bV3qzQnsiqsdPN2/eLBaaECR01IP/+uuvNZOXj1VCSmIfExMjepNq1Bne6DGcevkkfBSxoIuAgACd8d70fu+rrkmZ5agnnR11GtBz585h2bJlokzXofdM4W/awyMUU0yRMNo9VxsbG/EzOipKxB3Hxsbi448/Fr+LvtAEoJubG4L37hW/X36Z7WgykBbtqPnl4EExPJIdigxR33RZxF9irl67pnMpIpth2cVLlzRLnGmHkPk//CCWINNyYErss2z5cqWevb3wv9munWiv6zratmjxYtFebdbly4sNBihJUnJKijJo8GCNr3yFCmJpdvx//2nOnzZ9epbzVaqjrPvpJ42ftotS+yjBESVE+jsyUvhoSTUlVqLkUd179Mg138UfISFZEiWZW1gIo88g8uJF5bvvv9f46L3Te6Yl5+rzKY+I2q82yrmh/Rq5WWxcnLLgxx81OUzIKDcH/U1RfhBd51A9JW9q0rRpltckcx86VDlx8qSSnpEh2qpuTCI5FX13Py5cmONalDDqn6tXc9Rr2wZfX3Ht43/8odPPVvbNaOOmTQpNdDAvBtTjXbdunUjkf/nyZTEMohJHNGjQQPR8Kb+xq6urbJ0/K1asEPmPaUMBCgOjIRXq9dHjPE2M0W7GNK5K/4ayb25LPVp6tKfxcupd0iIO7RSpf/zxBzo6O4vy4iVLcOPGDc0GrdSDpLHdTz75RPT281poQ8MuFNVAQx40BDRM1eumyAeKjJg/f77ojVMPl8xOphDVZseOHSIumSYiaUhl1KhReb4eQU8MNJGXG/3798+y7F0NPb3ktyCHVgrS2Db1+GlykIajZsyYkWWeQB8OqnroFAZIQzm08rFXr16cHtUAMaIUlerHRObFgsZzaVUhhbAV9A9cH0hIn2exhLZIr1m7VtxAihpVRyRfwWWYsozxdr/tWZYHMy8ONClGsbbFIdCEIaxmY4FmDBl6YjOmR0uaZGEYhmHKFhs2bIDxYLd3sGTxs0xjDFNSaIcL0rAEwzBZWeqzFMYfeE1GRMSfOHr0qKxmmJJBO1lSQdJ3MszLAK0KvnTpIoweXFcUlwHtUNehNvx36L9ElWEKC0UtUEIo2rGcNsElatjYiIUnjo6OqFOnjqhjmJeZgQMG4mZsQqZIbw3YBO9PvXAt6lqOxOsMU9TQjiGUglMXtCsLpfhkmJcZ+vtwsHfA2oUbM0WaVqg1dKoN92HuYqt5hmEYpvSYPGky/P38cSn038xl4RSiNePTWfBZ4mNQO18wDMO8aJAG0+KqL6Z+K8JoRU9a+jDIsw/++fcy/oz4U2yiyTAMw5QcDx8+xBvN34B9rfoI9N0n6rKsRlj23RrcuX0Hn37yqaxhGIZhSoppn01DYkKi0GI1WUTatoYdFnzrg5UrV4h1/wzDMEzJQLsr+fj4YN6MH2FnU1PWIutwh5rhE95B+J9h+OvCXyKtIsMwDFN8UBKs5s2aw7F+U+xYu1vWZqIz+cKi/y1Helo6vEZ55bljBsMwDPN80Mpb73HeSE5KxpLZK2XtM3SKdNVXq8J3qR8OHDiAYR7DdCZjZxiGYZ4PEuj3R78v1g6sW7QZtjVy7pKkU6QJFydX7Fy3B3v27IHHUA8WaoZhmCKE8tWMeX+M2G90y4qd6OHaS3qykqtIE53e6iyEOjg4GEPdh7JQMwzDFAFqgaYMpCTQvbu6SU9O8hRpgoR61/pg7N+/H+7vuotE8gzDMEzhIIEeO2YsNm3apBLoHejTTfc+o2ryFWmiY/tOQqhpjHrwoMFi402GYRimYFAUx8gRI8XGzZuX+6sEOufmytnRS6QJ53YuCPLdjzOnzqBJ4yYICgqSHoZhGCY/aP9RCrML3huMrSsD4Na9v/Tkjd4iTbzV1hmnfrmArs49MGjgQIx4bwSSkpKkl2EYhslOamoqpnw0BZ1dO8PRoQnCD/6V5xh0dnQuZtGHPQeDMGm6N0zKmWD1mtXo06eP9DAMwzDEiRMn4DnSE/Fx8WIload7wTdbLlBPWpu+PQbg1K8X8Fbrjujr5ibeSGRkpPQyDMO8vMTExGDq1Kno8FYH2FWrpeo9ny+UQBOFFmmiSuUq8F26DZuW+ePokWNo0rgxunbpisDAQF6pyDDMSwfl3xgyeAjq1a2HLRu3YP7Xi7Bn8y94rWZt2aLgPJdIqxnk9jb+OvoP/Nf+DJMn5UQECO0qMHfuXI4EYRjmhYbSi65atUpMCnbp3BkxUbFYvWCDSNjv7TkRRkZGsmXhKPSYdF5cuXYZK32XYpP/eqRnpKN///5w7ugMJycntGjRAqamprIlwzCMYUFxzjS0GxoaipCQEOwK2IUHDx7g7X7umDBqElq/0Va2LBqKRaTV3H9wH1sDNuLng4EIP3sCKfeSYWFhiTZt2sDpLSc4ODigZs2asLOzg62tLczNzcVOBAzDMKUJra6mhXs3b94UGyeTRUdH40TYCYSFhSE5OUmlVxZo2aw1erj2hpfHWFSvWl2eXbQUq0hrQ4lELv4TiROnQ3HyTCjCz53A9RvRqkeFB7IFwzBM2cTMzBw1bWuhVbM2aNfaCe1aOeGNJi1LpFNZYiKdGyn3UhB/Mw63Em8i7VGauIPR4wTDMExpQGPIJiYmMCtnhqpVqonNUChIorQodZFmGIZhcqdIojsYhmGY4gD4f5PVrbKEjn38AAAAAElFTkSuQmCC;" vertex="1" parent="1">
          <mxGeometry x="860" y="296.61" width="160" height="36.79" as="geometry" />
        </mxCell>
        <mxCell id="Rq42y3tWJTyJUc1vezib-32" value="" style="endArrow=none;html=1;rounded=0;" edge="1" parent="1">
          <mxGeometry width="50" height="50" relative="1" as="geometry">
            <mxPoint x="210" y="502.3529411764706" as="sourcePoint" />
            <mxPoint x="210" y="220" as="targetPoint" />
          </mxGeometry>
        </mxCell>
        <mxCell id="Rq42y3tWJTyJUc1vezib-36" value="" style="endArrow=classic;html=1;rounded=0;" edge="1" parent="1">
          <mxGeometry width="50" height="50" relative="1" as="geometry">
            <mxPoint x="210" y="220" as="sourcePoint" />
            <mxPoint x="230" y="220" as="targetPoint" />
          </mxGeometry>
        </mxCell>
        <mxCell id="Rq42y3tWJTyJUc1vezib-38" value="" style="endArrow=classic;html=1;rounded=0;" edge="1" parent="1">
          <mxGeometry width="50" height="50" relative="1" as="geometry">
            <mxPoint x="210" y="284.41" as="sourcePoint" />
            <mxPoint x="230" y="284.41" as="targetPoint" />
          </mxGeometry>
        </mxCell>
        <mxCell id="Rq42y3tWJTyJUc1vezib-39" value="" style="endArrow=classic;html=1;rounded=0;" edge="1" parent="1">
          <mxGeometry width="50" height="50" relative="1" as="geometry">
            <mxPoint x="210" y="360" as="sourcePoint" />
            <mxPoint x="230" y="360" as="targetPoint" />
          </mxGeometry>
        </mxCell>
        <mxCell id="Rq42y3tWJTyJUc1vezib-40" value="" style="endArrow=classic;html=1;rounded=0;" edge="1" parent="1">
          <mxGeometry width="50" height="50" relative="1" as="geometry">
            <mxPoint x="210" y="500" as="sourcePoint" />
            <mxPoint x="230" y="500" as="targetPoint" />
          </mxGeometry>
        </mxCell>
        <mxCell id="Rq42y3tWJTyJUc1vezib-43" value="" style="endArrow=classic;html=1;rounded=0;" edge="1" parent="1">
          <mxGeometry width="50" height="50" relative="1" as="geometry">
            <mxPoint x="170" y="353.82" as="sourcePoint" />
            <mxPoint x="210" y="353.82" as="targetPoint" />
          </mxGeometry>
        </mxCell>
        <mxCell id="Rq42y3tWJTyJUc1vezib-50" value="" style="endArrow=classic;html=1;rounded=0;exitX=0.469;exitY=-0.005;exitDx=0;exitDy=0;exitPerimeter=0;" edge="1" parent="1" source="Rq42y3tWJTyJUc1vezib-24">
          <mxGeometry width="50" height="50" relative="1" as="geometry">
            <mxPoint x="480" y="360" as="sourcePoint" />
            <mxPoint x="480" y="240" as="targetPoint" />
          </mxGeometry>
        </mxCell>
        <mxCell id="Rq42y3tWJTyJUc1vezib-54" value="" style="endArrow=classic;html=1;rounded=0;" edge="1" parent="1">
          <mxGeometry width="50" height="50" relative="1" as="geometry">
            <mxPoint x="679.76" y="240.01" as="sourcePoint" />
            <mxPoint x="679.76" y="260.01" as="targetPoint" />
          </mxGeometry>
        </mxCell>
        <mxCell id="Rq42y3tWJTyJUc1vezib-56" value="" style="endArrow=classic;html=1;rounded=0;" edge="1" parent="1">
          <mxGeometry width="50" height="50" relative="1" as="geometry">
            <mxPoint x="840" y="314.77" as="sourcePoint" />
            <mxPoint x="860" y="314.77" as="targetPoint" />
          </mxGeometry>
        </mxCell>
        <mxCell id="Rq42y3tWJTyJUc1vezib-58" value="" style="endArrow=classic;html=1;rounded=0;" edge="1" parent="1">
          <mxGeometry width="50" height="50" relative="1" as="geometry">
            <mxPoint x="1020" y="314.77" as="sourcePoint" />
            <mxPoint x="1050" y="314.77" as="targetPoint" />
          </mxGeometry>
        </mxCell>
        <mxCell id="Rq42y3tWJTyJUc1vezib-63" value="" style="endArrow=classic;html=1;rounded=0;" edge="1" parent="1">
          <mxGeometry width="50" height="50" relative="1" as="geometry">
            <mxPoint x="435" y="353.04" as="sourcePoint" />
            <mxPoint x="480" y="353" as="targetPoint" />
          </mxGeometry>
        </mxCell>
        <mxCell id="Rq42y3tWJTyJUc1vezib-64" value="" style="endArrow=classic;html=1;rounded=0;" edge="1" parent="1">
          <mxGeometry width="50" height="50" relative="1" as="geometry">
            <mxPoint x="435" y="284.87" as="sourcePoint" />
            <mxPoint x="480" y="284.83" as="targetPoint" />
          </mxGeometry>
        </mxCell>
        <mxCell id="Rq42y3tWJTyJUc1vezib-65" value="" style="endArrow=classic;html=1;rounded=0;exitX=1;exitY=0.5;exitDx=0;exitDy=0;" edge="1" parent="1" source="Rq42y3tWJTyJUc1vezib-18">
          <mxGeometry width="50" height="50" relative="1" as="geometry">
            <mxPoint x="440" y="215" as="sourcePoint" />
            <mxPoint x="460" y="214.83" as="targetPoint" />
          </mxGeometry>
        </mxCell>
        <mxCell id="Rq42y3tWJTyJUc1vezib-66" value="" style="endArrow=classic;html=1;rounded=0;exitX=1;exitY=0.5;exitDx=0;exitDy=0;" edge="1" parent="1" source="9d08CHahCs7Jw4tF3D-T-2">
          <mxGeometry width="50" height="50" relative="1" as="geometry">
            <mxPoint x="15" y="355.04" as="sourcePoint" />
            <mxPoint x="60" y="355" as="targetPoint" />
          </mxGeometry>
        </mxCell>
      </root>
    </mxGraphModel>
  </diagram>
</mxfile>
